<?xml version="1.0" encoding="utf-8"?>
<!-- Generator: Adobe Illustrator 25.0.0, SVG Export Plug-In . SVG Version: 6.00 Build 0)  -->
<svg version="1.1" id="Layer_1" xmlns="http://www.w3.org/2000/svg" xmlns:xlink="http://www.w3.org/1999/xlink" x="0px" y="0px"
	 viewBox="0 0 595.28 218" style="enable-background:new 0 0 595.28 218;" xml:space="preserve">
<style type="text/css">
	.st0{fill:url(#SVGID_1_);}
	.st1{fill-rule:evenodd;clip-rule:evenodd;fill:url(#SVGID_2_);}
	.st2{fill-rule:evenodd;clip-rule:evenodd;fill:url(#SVGID_3_);}
	.st3{fill-rule:evenodd;clip-rule:evenodd;fill:#FFFFFF;}
	.st4{fill:#818285;}
	.st5{fill:#6E6F72;}
</style>
<g>
	
		<linearGradient id="SVGID_1_" gradientUnits="userSpaceOnUse" x1="56.5254" y1="290.0236" x2="154.1899" y2="393.1458" gradientTransform="matrix(1 0 0 1 0 -236)">
		<stop  offset="0" style="stop-color:#F7EC2C"/>
		<stop  offset="0.4146" style="stop-color:#EE3625"/>
		<stop  offset="0.6233" style="stop-color:#DA1A5D"/>
		<stop  offset="0.9125" style="stop-color:#171143"/>
	</linearGradient>
	<circle class="st0" cx="105.22" cy="105.43" r="72.75"/>
	<g>
		<linearGradient id="SVGID_2_" gradientUnits="userSpaceOnUse" x1="94.2058" y1="63.1884" x2="130.1552" y2="63.1884">
			<stop  offset="0" style="stop-color:#F7EC2C"/>
			<stop  offset="0.299" style="stop-color:#F89521"/>
			<stop  offset="0.6434" style="stop-color:#DA1A5D"/>
			<stop  offset="0.9125" style="stop-color:#171143"/>
		</linearGradient>
		<path class="st1" d="M95.62,71.43c0,0.03,0,0.06,0,0.09c0.24,0.03,0.52,0.06,0.76,0.09c0,0.03,0,0.06,0,0.09
			c0.21,0.03,0.46,0.06,0.67,0.09c0,0.03,0,0.06,0,0.09c0.09,0,0.18,0,0.28,0c0,0.03,0,0.06,0,0.09c0.09,0,0.18,0,0.28,0
			c0,0.03,0,0.06,0,0.09c0.09,0,0.18,0,0.28,0c0,0.03,0,0.06,0,0.09c0.06,0,0.12,0,0.18,0c0,0.03,0,0.06,0,0.09
			c0.09,0,0.18,0,0.28,0c0,0.03,0,0.06,0,0.09c0.06,0,0.12,0,0.18,0c0,0.03,0,0.06,0,0.09c0.09,0,0.18,0,0.28,0
			c0,0.03,0,0.06,0,0.09c0.18,0.06,0.4,0.12,0.58,0.18c0,0.03,0,0.06,0,0.09c0.06,0,0.12,0,0.18,0c0,0.03,0,0.06,0,0.09
			c0.06,0,0.12,0,0.18,0c0,0.03,0,0.06,0,0.09c0.18,0.06,0.4,0.12,0.58,0.18c0.03,0.06,0.06,0.12,0.09,0.18
			c0.12,0.03,0.24,0.06,0.4,0.09c0.03,0.06,0.06,0.12,0.09,0.18c0.12,0.03,0.24,0.06,0.4,0.09c0.03,0.06,0.06,0.12,0.09,0.18
			c0.06,0,0.12,0,0.18,0c0.03,0.06,0.06,0.12,0.09,0.18c0.09,0.03,0.18,0.06,0.28,0.09c0.06,0.09,0.12,0.18,0.18,0.28
			c0.06,0,0.12,0,0.18,0c0.06,0.09,0.12,0.18,0.18,0.28c0.06,0,0.12,0,0.18,0c0.12,0.15,0.24,0.34,0.4,0.49
			c0.37,0.37,0.8,0.61,1.07,1.07c0.03,0,0.06,0,0.09,0c-0.03-0.55-0.15-1.01-0.28-1.44c0-0.15,0-0.34,0-0.49
			c-0.28-0.86-0.4-1.62-0.4-2.78c0-0.49,0-0.98,0-1.44c0.03,0,0.06,0,0.09,0c0-0.21,0-0.46,0-0.67c0.03,0,0.06,0,0.09,0
			c0-0.15,0-0.34,0-0.49c0.03,0,0.06,0,0.09,0c0-0.12,0-0.24,0-0.4c0.03,0,0.06,0,0.09,0c0-0.12,0-0.24,0-0.4c0.03,0,0.06,0,0.09,0
			c0-0.12,0-0.24,0-0.4c0.03,0,0.06,0,0.09,0c0-0.09,0-0.18,0-0.28c0.03,0,0.06,0,0.09,0c0-0.09,0-0.18,0-0.28c0.03,0,0.06,0,0.09,0
			c0.03-0.18,0.06-0.4,0.09-0.58c0.03,0,0.06,0,0.09,0c0.03-0.12,0.06-0.24,0.09-0.4c0.03,0,0.06,0,0.09,0c0-0.09,0-0.18,0-0.28
			c0.03,0,0.06,0,0.09,0c0.06-0.18,0.12-0.4,0.18-0.58c0.03,0,0.06,0,0.09,0c0.03-0.12,0.06-0.24,0.09-0.4
			c0.06-0.03,0.12-0.06,0.18-0.09c0.06-0.18,0.12-0.4,0.18-0.58c0.03,0,0.06,0,0.09,0c0.03-0.09,0.06-0.18,0.09-0.28
			c0.06-0.03,0.12-0.06,0.18-0.09c0-0.06,0-0.12,0-0.18c0.09-0.06,0.18-0.12,0.28-0.18c0-0.06,0-0.12,0-0.18
			c0.09-0.06,0.18-0.12,0.28-0.18c0-0.06,0-0.12,0-0.18c0.15-0.12,0.34-0.24,0.49-0.4c0-0.06,0-0.12,0-0.18
			c0.09-0.06,0.18-0.12,0.28-0.18c0.21-0.24,0.46-0.52,0.67-0.76c0.06,0,0.12,0,0.18,0c0.12-0.15,0.24-0.34,0.4-0.49
			c0.09-0.03,0.18-0.06,0.28-0.09c0.03-0.06,0.06-0.12,0.09-0.18c0.06,0,0.12,0,0.18,0c0.06-0.09,0.12-0.18,0.18-0.28
			c0.06,0,0.12,0,0.18,0c0.03-0.06,0.06-0.12,0.09-0.18c0.06,0,0.12,0,0.18,0c0-0.03,0-0.06,0-0.09c0.06,0,0.12,0,0.18,0
			c0.03-0.06,0.06-0.12,0.09-0.18c0.18-0.06,0.4-0.12,0.58-0.18c0-0.03,0-0.06,0-0.09c0.18-0.06,0.4-0.12,0.58-0.18
			c0-0.03,0-0.06,0-0.09c0.09,0,0.18,0,0.28,0c0-0.03,0-0.06,0-0.09c0.09,0,0.18,0,0.28,0c0-0.03,0-0.06,0-0.09
			c0.09,0,0.18,0,0.28,0c0-0.03,0-0.06,0-0.09c0.09,0,0.18,0,0.28,0c0-0.03,0-0.06,0-0.09c0.34-0.03,0.64-0.06,0.98-0.09
			c0-0.03,0-0.06,0-0.09c0.34,0,0.64,0,0.98,0c0-0.03,0-0.06,0-0.09c0.24,0,0.52,0,0.76,0c0,0.03,0,0.06,0,0.09c0.4,0,0.76,0,1.16,0
			c0.8,0.18,1.62,0.4,2.42,0.58c0,0.03,0,0.06,0,0.09c0.06,0,0.12,0,0.18,0c0,0.03,0,0.06,0,0.09c0.09,0,0.18,0,0.28,0
			c0,0.03,0,0.06,0,0.09c0.18,0.06,0.4,0.12,0.58,0.18c0,0.03,0,0.06,0,0.09c0.06,0,0.12,0,0.18,0c0,0.03,0,0.06,0,0.09
			c0.18,0.06,0.4,0.12,0.58,0.18c0.03,0.06,0.06,0.12,0.09,0.18c0.12,0.03,0.24,0.06,0.4,0.09c0.03,0.06,0.06,0.12,0.09,0.18
			c0.06,0,0.12,0,0.18,0c0,0.03,0,0.06,0,0.09c0.09,0.03,0.18,0.06,0.28,0.09c0.03,0.06,0.06,0.12,0.09,0.18c0.06,0,0.12,0,0.18,0
			c0.06,0.09,0.12,0.18,0.18,0.28c0.06,0,0.12,0,0.18,0c0.06,0.09,0.12,0.18,0.18,0.28c0.06,0,0.12,0,0.18,0
			c0.09,0.12,0.18,0.24,0.28,0.4c0.37,0.28,1.28,0.95,2.11,0.67c0.95-0.31,1.5-1.1,2.11-1.74c0.09-0.06,0.18-0.12,0.28-0.18
			c0-0.03,0-0.06,0-0.09c0.06,0,0.12,0,0.18,0c0.06-0.09,0.12-0.18,0.18-0.28c0.24-0.21,0.52-0.46,0.76-0.67
			c0.34-0.37,0.64-0.7,0.98-1.07c0.06,0,0.12,0,0.18,0c0.03-0.06,0.06-0.12,0.09-0.18c0.12-0.09,0.24-0.18,0.4-0.28
			c0-0.06,0-0.12,0-0.18c0.06-0.03,0.12-0.06,0.18-0.09c0-0.09,0-0.18,0-0.28c0.03,0,0.06,0,0.09,0c0-0.34,0-0.64,0-0.98
			c-0.03,0-0.06,0-0.09,0c0-0.06,0-0.12,0-0.18c-0.03,0-0.06,0-0.09,0c-0.03-0.12-0.06-0.24-0.09-0.4c-0.34-0.37-0.64-0.7-0.98-1.07
			c-0.06,0-0.12,0-0.18,0c-0.15-0.18-0.34-0.4-0.49-0.58c-0.06,0-0.12,0-0.18,0c-0.12-0.15-0.24-0.34-0.4-0.49
			c-0.09-0.03-0.18-0.06-0.28-0.09c-0.03-0.06-0.06-0.12-0.09-0.18c-0.06,0-0.12,0-0.18,0c-0.06-0.09-0.12-0.18-0.18-0.28
			c-0.09-0.03-0.18-0.06-0.28-0.09c-0.03-0.06-0.06-0.12-0.09-0.18c-0.06,0-0.12,0-0.18,0c-0.03-0.06-0.06-0.12-0.09-0.18
			c-0.09-0.03-0.18-0.06-0.28-0.09c0-0.03,0-0.06,0-0.09c-0.06,0-0.12,0-0.18,0c-0.03-0.06-0.06-0.12-0.09-0.18
			c-0.09-0.03-0.18-0.06-0.28-0.09c0-0.03,0-0.06,0-0.09c-0.18-0.06-0.4-0.12-0.58-0.18c-0.03-0.06-0.06-0.12-0.09-0.18
			c-0.12-0.03-0.24-0.06-0.4-0.09c0-0.03,0-0.06,0-0.09c-0.06,0-0.12,0-0.18,0c0-0.03,0-0.06,0-0.09c-0.18-0.06-0.4-0.12-0.58-0.18
			c0-0.03,0-0.06,0-0.09c-0.09,0-0.18,0-0.28,0c0-0.03,0-0.06,0-0.09c-0.12-0.03-0.24-0.06-0.4-0.09c0-0.03,0-0.06,0-0.09
			c-0.28-0.06-0.58-0.12-0.86-0.18c0-0.03,0-0.06,0-0.09c-0.09,0-0.18,0-0.28,0c0-0.03,0-0.06,0-0.09c-0.09,0-0.18,0-0.28,0
			c0-0.03,0-0.06,0-0.09c-0.09,0-0.18,0-0.28,0c0-0.03,0-0.06,0-0.09c-0.12,0-0.24,0-0.4,0c0-0.03,0-0.06,0-0.09
			c-0.15,0-0.34,0-0.49,0c0-0.03,0-0.06,0-0.09c-0.34-0.03-0.64-0.06-0.98-0.09c0-0.03,0-0.06,0-0.09c-0.21,0-0.46,0-0.67,0
			c-0.49-0.15-1.1-0.18-1.74-0.18c-0.34,0-0.64,0-0.98,0c0-0.03,0-0.06,0-0.09c-0.55,0-1.1,0-1.65,0c-0.28,0.24-0.86-0.03-1.25,0.09
			c0,0.03,0,0.06,0,0.09c-0.24,0-0.52,0-0.76,0c0,0.03,0,0.06,0,0.09c-0.15,0-0.34,0-0.49,0c0,0.03,0,0.06,0,0.09
			c-0.15,0-0.34,0-0.49,0c0,0.03,0,0.06,0,0.09c-0.12,0-0.24,0-0.4,0c0,0.03,0,0.06,0,0.09c-0.12,0-0.24,0-0.4,0
			c0,0.03,0,0.06,0,0.09c-0.09,0-0.18,0-0.28,0c0,0.03,0,0.06,0,0.09c-0.12,0-0.24,0-0.4,0c-2.39,0.86-4.37,2.02-6.27,3.36
			c-0.09,0.12-0.18,0.24-0.28,0.4c-0.06,0-0.12,0-0.18,0c-0.15,0.18-0.34,0.4-0.49,0.58c-0.06,0-0.12,0-0.18,0
			c-0.49,0.52-0.98,1.04-1.44,1.53c-0.86,0.86-1.68,1.59-2.42,2.6c-0.18,0.15-0.4,0.34-0.58,0.49c0,0.06,0,0.12,0,0.18
			c-0.12,0.09-0.24,0.18-0.4,0.28c-0.03,0.09-0.06,0.18-0.09,0.28c-0.06,0.03-0.12,0.06-0.18,0.09c0,0.06,0,0.12,0,0.18
			c-0.09,0.06-0.18,0.12-0.28,0.18c-0.03,0.09-0.06,0.18-0.09,0.28c-0.06,0.03-0.12,0.06-0.18,0.09c0,0.06,0,0.12,0,0.18
			c-0.06,0.03-0.12,0.06-0.18,0.09c-0.03,0.09-0.06,0.18-0.09,0.28c-0.03,0-0.06,0-0.09,0c0,0.06,0,0.12,0,0.18
			c-0.06,0.03-0.12,0.06-0.18,0.09c-0.03,0.12-0.06,0.24-0.09,0.4c-0.06,0.03-0.12,0.06-0.18,0.09c-0.06,0.18-0.12,0.4-0.18,0.58
			c-0.03,0-0.06,0-0.09,0c0,0.06,0,0.12,0,0.18c-0.03,0-0.06,0-0.09,0c0,0.06,0,0.12,0,0.18c-0.03,0-0.06,0-0.09,0
			c0,0.06,0,0.12,0,0.18c-0.03,0-0.06,0-0.09,0c-0.06,0.18-0.12,0.4-0.18,0.58c-0.03,0-0.06,0-0.09,0c-0.18,0.58-0.4,1.16-0.58,1.74
			c0,0.12,0,0.24,0,0.4c-0.03,0-0.06,0-0.09,0c0,0.15,0,0.34,0,0.49c-0.03,0-0.06,0-0.09,0c0,0.15,0,0.34,0,0.49
			c-0.03,0-0.06,0-0.09,0c0,0.24,0,0.52,0,0.76c-0.03,0-0.06,0-0.09,0c0,0.7,0,1.41,0,2.11c0,0.31-0.06,0.7,0.09,0.86
			C94.92,71.49,95.23,71.31,95.62,71.43z"/>
		<linearGradient id="SVGID_3_" gradientUnits="userSpaceOnUse" x1="45.3799" y1="114.8098" x2="152.1765" y2="114.8098">
			<stop  offset="0" style="stop-color:#F7EC2C"/>
			<stop  offset="0.299" style="stop-color:#F89521"/>
			<stop  offset="0.6434" style="stop-color:#DA1A5D"/>
			<stop  offset="0.9125" style="stop-color:#171143"/>
		</linearGradient>
		<path class="st2" d="M151.93,85.32c0-0.49,0-0.98,0-1.44c-0.03,0-0.06,0-0.09,0c0-0.24,0-0.52,0-0.76c-0.03,0-0.06,0-0.09,0
			c0-0.18,0-0.4,0-0.58c-0.03,0-0.06,0-0.09,0c0-0.18,0-0.4,0-0.58c-0.03,0-0.06,0-0.09,0c0-0.12,0-0.24,0-0.4
			c-0.03,0-0.06,0-0.09,0c0-0.15,0-0.34,0-0.49c-0.37-1.07-0.7-2.11-1.07-3.18c-0.03,0-0.06,0-0.09,0c-0.03-0.12-0.06-0.24-0.09-0.4
			c-0.03,0-0.06,0-0.09,0c0-0.06,0-0.12,0-0.18c-0.03,0-0.06,0-0.09,0c0-0.09,0-0.18,0-0.28c-0.03,0-0.06,0-0.09,0
			c-0.03-0.12-0.06-0.24-0.09-0.4c-0.03,0-0.06,0-0.09,0c-0.03-0.12-0.06-0.24-0.09-0.4c-0.06-0.03-0.12-0.06-0.18-0.09
			c-0.06-0.18-0.12-0.4-0.18-0.58c-0.06-0.03-0.12-0.06-0.18-0.09c-0.03-0.12-0.06-0.24-0.09-0.4c-0.03,0-0.06,0-0.09,0
			c-0.03-0.09-0.06-0.18-0.09-0.28c-0.06-0.03-0.12-0.06-0.18-0.09c0-0.06,0-0.12,0-0.18c-0.06-0.03-0.12-0.06-0.18-0.09
			c0-0.06,0-0.12,0-0.18c-0.06-0.03-0.12-0.06-0.18-0.09c0-0.06,0-0.12,0-0.18c-0.09-0.06-0.18-0.12-0.28-0.18c0-0.06,0-0.12,0-0.18
			c-0.24-0.21-0.52-0.46-0.76-0.67c-0.03-0.06-0.06-0.12-0.09-0.18c-0.28-0.18-0.73-0.18-1.16-0.18c-0.15,0.18-0.34,0.15-0.49,0.28
			c-0.18,0.21-0.4,0.46-0.58,0.67c-0.49,0.46-0.98,0.89-1.44,1.35c-0.61,0.64-1.22,1.28-1.84,1.93c-0.34,0.28-0.64,0.58-0.98,0.86
			c-0.03,0.15-0.06,0.34-0.09,0.49c-0.03,0-0.06,0-0.09,0c0,0.34,0,0.64,0,0.98c0.03,0,0.06,0,0.09,0c0.06,0.18,0.12,0.4,0.18,0.58
			c0.15,0.12,0.34,0.24,0.49,0.4c0,0.06,0,0.12,0,0.18c0.12,0.09,0.24,0.18,0.4,0.28c0,0.06,0,0.12,0,0.18
			c0.09,0.06,0.18,0.12,0.28,0.18c0,0.06,0,0.12,0,0.18c0.03,0,0.06,0,0.09,0c0,0.06,0,0.12,0,0.18c0.06,0.03,0.12,0.06,0.18,0.09
			c0.03,0.12,0.06,0.24,0.09,0.4c0.06,0.03,0.12,0.06,0.18,0.09c0,0.06,0,0.12,0,0.18c0.03,0,0.06,0,0.09,0c0,0.06,0,0.12,0,0.18
			c0.03,0,0.06,0,0.09,0c0,0.09,0,0.18,0,0.28c0.03,0,0.06,0,0.09,0c0,0.06,0,0.12,0,0.18c0.03,0,0.06,0,0.09,0
			c0.03,0.15,0.06,0.34,0.09,0.49c0.03,0,0.06,0,0.09,0c0.15,0.67,0.34,1.35,0.49,2.02c0,0.43,0,0.83,0,1.25c0.03,0,0.06,0,0.09,0
			c-0.03,0.61-0.06,1.22-0.09,1.84c-0.03,0-0.06,0-0.09,0c-0.06,0.43-0.12,0.83-0.18,1.25c-0.03,0-0.06,0-0.09,0
			c-0.06,0.28-0.12,0.58-0.18,0.86c-0.03,0-0.06,0-0.09,0c-0.06,0.18-0.12,0.4-0.18,0.58c-0.03,0-0.06,0-0.09,0
			c0,0.06,0,0.12,0,0.18c-0.03,0-0.06,0-0.09,0c0,0.06,0,0.12,0,0.18c-0.03,0-0.06,0-0.09,0c-0.03,0.12-0.06,0.24-0.09,0.4
			c-0.06,0.03-0.12,0.06-0.18,0.09c-0.03,0.12-0.06,0.24-0.09,0.4c-0.06,0.03-0.12,0.06-0.18,0.09c0,0.06,0,0.12,0,0.18
			c-0.09,0.06-0.18,0.12-0.28,0.18c0,0.06,0,0.12,0,0.18c-0.06,0.03-0.12,0.06-0.18,0.09c-0.03,0.09-0.06,0.18-0.09,0.28
			c-0.18,0.15-0.4,0.34-0.58,0.49c0,0.06,0,0.12,0,0.18c-0.09,0.06-0.18,0.12-0.28,0.18c-0.21,0.24-0.46,0.52-0.67,0.76
			c-0.06,0-0.12,0-0.18,0c-0.18,0.21-0.4,0.46-0.58,0.67c-0.06,0-0.12,0-0.18,0c-0.09,0.12-0.18,0.24-0.28,0.4
			c-0.06,0-0.12,0-0.18,0c-0.06,0.09-0.12,0.18-0.18,0.28c-0.06,0-0.12,0-0.18,0c-0.03,0.06-0.06,0.12-0.09,0.18
			c-0.06,0-0.12,0-0.18,0c-0.03,0.06-0.06,0.12-0.09,0.18c-0.09,0.03-0.18,0.06-0.28,0.09c0,0.03,0,0.06,0,0.09
			c-0.18,0.06-0.4,0.12-0.58,0.18c-0.03,0.06-0.06,0.12-0.09,0.18c-0.06,0-0.12,0-0.18,0c0,0.03,0,0.06,0,0.09
			c-0.12,0.03-0.24,0.06-0.4,0.09c0,0.03,0,0.06,0,0.09c-0.09,0-0.18,0-0.28,0c0,0.03,0,0.06,0,0.09c-0.06,0-0.12,0-0.18,0
			c0,0.03,0,0.06,0,0.09c-0.09,0-0.18,0-0.28,0c0,0.03,0,0.06,0,0.09c-0.06,0-0.12,0-0.18,0c0,0.03,0,0.06,0,0.09
			c-0.18,0.03-0.4,0.06-0.58,0.09c0,0.03,0,0.06,0,0.09c-0.12,0-0.24,0-0.4,0c-1.25,0.4-3.46,0.4-4.74,0
			c-0.21-0.03-0.46-0.06-0.67-0.09c0-0.03,0-0.06,0-0.09c-0.18-0.03-0.4-0.06-0.58-0.09c0-0.03,0-0.06,0-0.09c-0.06,0-0.12,0-0.18,0
			c0-0.03,0-0.06,0-0.09c-0.09,0-0.18,0-0.28,0c0-0.03,0-0.06,0-0.09c-0.06,0-0.12,0-0.18,0c0-0.03,0-0.06,0-0.09
			c-0.09,0-0.18,0-0.28,0c0-0.03,0-0.06,0-0.09c-0.18-0.06-0.4-0.12-0.58-0.18c0-0.03,0-0.06,0-0.09c-0.06,0-0.12,0-0.18,0
			c0-0.03,0-0.06,0-0.09c-0.06,0-0.12,0-0.18,0c0-0.03,0-0.06,0-0.09c-0.18-0.06-0.4-0.12-0.58-0.18c-0.03-0.06-0.06-0.12-0.09-0.18
			c-0.12-0.03-0.24-0.06-0.4-0.09c-0.03-0.06-0.06-0.12-0.09-0.18c-0.12-0.03-0.24-0.06-0.4-0.09c-0.03-0.06-0.06-0.12-0.09-0.18
			c-0.06,0-0.12,0-0.18,0c-0.03-0.06-0.06-0.12-0.09-0.18c-0.06,0-0.12,0-0.18,0c-0.03-0.06-0.06-0.12-0.09-0.18
			c-0.06,0-0.12,0-0.18,0c-0.03-0.06-0.06-0.12-0.09-0.18c-0.06,0-0.12,0-0.18,0c-0.06-0.09-0.12-0.18-0.18-0.28
			c-0.06,0-0.12,0-0.18,0c-0.03-0.06-0.06-0.12-0.09-0.18c-0.06,0-0.12,0-0.18,0c-0.06-0.09-0.12-0.18-0.18-0.28
			c-0.06,0-0.12,0-0.18,0c-0.09-0.12-0.18-0.24-0.28-0.4c-0.06,0-0.12,0-0.18,0c-0.09-0.12-0.18-0.24-0.28-0.4
			c-0.06,0-0.12,0-0.18,0c-0.09-0.12-0.18-0.24-0.28-0.4c-0.06,0-0.12,0-0.18,0c-0.15-0.18-0.34-0.4-0.49-0.58
			c-0.06,0-0.12,0-0.18,0c-0.24-0.28-0.52-0.58-0.76-0.86c-0.06,0-0.12,0-0.18,0c-1.04-1.07-2.05-2.11-3.09-3.18
			c-0.98-0.92-1.93-1.87-2.91-2.78c-0.43-0.46-0.83-0.89-1.25-1.35c-0.06,0-0.12,0-0.18,0c-0.09-0.12-0.18-0.24-0.28-0.4
			c-0.34-0.28-0.64-0.58-0.98-0.86c-1.28-1.32-2.57-2.63-3.85-3.95c-0.06,0-0.12,0-0.18,0c-0.37-0.4-0.7-0.76-1.07-1.16
			c-0.06,0-0.12,0-0.18,0c-0.15-0.18-0.34-0.4-0.49-0.58c-0.06,0-0.12,0-0.18,0c-0.12-0.15-0.24-0.34-0.4-0.49
			c-0.06,0-0.12,0-0.18,0c-0.09-0.12-0.18-0.24-0.28-0.4c-0.06,0-0.12,0-0.18,0c-0.09-0.12-0.18-0.24-0.28-0.4
			c-0.06,0-0.12,0-0.18,0c-0.06-0.09-0.12-0.18-0.18-0.28c-0.06,0-0.12,0-0.18,0c-0.03-0.06-0.06-0.12-0.09-0.18
			c-0.06,0-0.12,0-0.18,0c-0.06-0.09-0.12-0.18-0.18-0.28c-0.06,0-0.12,0-0.18,0c-0.03-0.06-0.06-0.12-0.09-0.18
			c-0.09-0.03-0.18-0.06-0.28-0.09c0-0.03,0-0.06,0-0.09c-0.06,0-0.12,0-0.18,0c-0.03-0.06-0.06-0.12-0.09-0.18
			c-0.09-0.03-0.18-0.06-0.28-0.09c0-0.03,0-0.06,0-0.09c-0.12-0.03-0.24-0.06-0.4-0.09c-0.03-0.06-0.06-0.12-0.09-0.18
			c-0.12-0.03-0.24-0.06-0.4-0.09c-0.03-0.06-0.06-0.12-0.09-0.18c-0.06,0-0.12,0-0.18,0c0-0.03,0-0.06,0-0.09
			c-0.06,0-0.12,0-0.18,0c0-0.03,0-0.06,0-0.09c-0.06,0-0.12,0-0.18,0c0-0.03,0-0.06,0-0.09c-0.06,0-0.12,0-0.18,0
			c0-0.03,0-0.06,0-0.09c-0.06,0-0.12,0-0.18,0c0-0.03,0-0.06,0-0.09c-0.06,0-0.12,0-0.18,0c0-0.03,0-0.06,0-0.09
			c-0.06,0-0.12,0-0.18,0c0-0.03,0-0.06,0-0.09c-0.06,0-0.12,0-0.18,0c0-0.03,0-0.06,0-0.09c-0.18-0.06-0.4-0.12-0.58-0.18
			c0-0.03,0-0.06,0-0.09c-0.09,0-0.18,0-0.28,0c0-0.03,0-0.06,0-0.09c-0.12-0.03-0.24-0.06-0.4-0.09c0-0.03,0-0.06,0-0.09
			c-0.09,0-0.18,0-0.28,0c0-0.03,0-0.06,0-0.09c-0.09,0-0.18,0-0.28,0c0-0.03,0-0.06,0-0.09c-0.09,0-0.18,0-0.28,0
			c0-0.03,0-0.06,0-0.09c-0.09,0-0.18,0-0.28,0c0-0.03,0-0.06,0-0.09c-0.09,0-0.18,0-0.28,0c0-0.03,0-0.06,0-0.09
			c-0.24-0.03-0.52-0.06-0.76-0.09c-2.11-0.7-5.32-0.43-7.13,0.28c-0.18,0.03-0.4,0.06-0.58,0.09c0,0.03,0,0.06,0,0.09
			c-0.06,0-0.12,0-0.18,0c0,0.03,0,0.06,0,0.09c-0.09,0-0.18,0-0.28,0c0,0.03,0,0.06,0,0.09c-0.18,0.06-0.4,0.12-0.58,0.18
			c0,0.03,0,0.06,0,0.09c-0.06,0-0.12,0-0.18,0c0,0.03,0,0.06,0,0.09c-0.06,0-0.12,0-0.18,0c0,0.03,0,0.06,0,0.09
			c-0.06,0-0.12,0-0.18,0c0,0.03,0,0.06,0,0.09c-0.06,0-0.12,0-0.18,0c0,0.03,0,0.06,0,0.09c-0.06,0-0.12,0-0.18,0
			c0,0.03,0,0.06,0,0.09c-0.06,0-0.12,0-0.18,0c-0.03,0.06-0.06,0.12-0.09,0.18c-0.12,0.03-0.24,0.06-0.4,0.09c0,0.03,0,0.06,0,0.09
			c-0.09,0.03-0.18,0.06-0.28,0.09c-0.03,0.06-0.06,0.12-0.09,0.18c-0.06,0-0.12,0-0.18,0c0,0.03,0,0.06,0,0.09
			c-0.09,0.03-0.18,0.06-0.28,0.09c-0.03,0.06-0.06,0.12-0.09,0.18c-0.06,0-0.12,0-0.18,0c-0.06,0.09-0.12,0.18-0.18,0.28
			c-0.06,0-0.12,0-0.18,0c-0.09,0.12-0.18,0.24-0.28,0.4c-0.06,0-0.12,0-0.18,0c-0.12,0.15-0.24,0.34-0.4,0.49
			c-0.06,0-0.12,0-0.18,0c-0.28,0.34-0.58,0.64-0.86,0.98c-0.06,0-0.12,0-0.18,0c-0.03,0.06-0.06,0.12-0.09,0.18
			c-0.15,0.12-0.34,0.24-0.49,0.4c0,0.06,0,0.12,0,0.18c-0.34,0.28-0.64,0.58-0.98,0.86c0,0.06,0,0.12,0,0.18
			c-0.12,0.09-0.24,0.18-0.4,0.28c0,0.06,0,0.12,0,0.18c-0.06,0.03-0.12,0.06-0.18,0.09c0,0.03,0,0.06,0,0.09
			c-0.06,0.03-0.12,0.06-0.18,0.09c0,0.06,0,0.12,0,0.18c-0.06,0.03-0.12,0.06-0.18,0.09c0,0.06,0,0.12,0,0.18
			c-0.09,0.06-0.18,0.12-0.28,0.18c0,0.06,0,0.12,0,0.18c-0.06,0.03-0.12,0.06-0.18,0.09c-0.03,0.12-0.06,0.24-0.09,0.4
			c-0.06,0.03-0.12,0.06-0.18,0.09c-0.03,0.09-0.06,0.18-0.09,0.28c-0.03,0-0.06,0-0.09,0c0,0.06,0,0.12,0,0.18
			c-0.03,0-0.06,0-0.09,0c0,0.06,0,0.12,0,0.18c-0.03,0-0.06,0-0.09,0c0,0.06,0,0.12,0,0.18c-0.03,0-0.06,0-0.09,0
			c0,0.06,0,0.12,0,0.18c-0.06,0.03-0.12,0.06-0.18,0.09c0,0.06,0,0.12,0,0.18c-0.03,0-0.06,0-0.09,0c0,0.06,0,0.12,0,0.18
			c-0.03,0-0.06,0-0.09,0c0,0.09,0,0.18,0,0.28c-0.03,0-0.06,0-0.09,0c0,0.06,0,0.12,0,0.18c-0.03,0-0.06,0-0.09,0
			c-0.03,0.12-0.06,0.24-0.09,0.4c-0.03,0-0.06,0-0.09,0c0,0.09,0,0.18,0,0.28c-0.03,0-0.06,0-0.09,0c0,0.06,0,0.12,0,0.18
			c-0.03,0-0.06,0-0.09,0c-0.03,0.18-0.06,0.4-0.09,0.58c-0.03,0-0.06,0-0.09,0c0,0.09,0,0.18,0,0.28c-0.03,0-0.06,0-0.09,0
			c0,0.09,0,0.18,0,0.28c-0.03,0-0.06,0-0.09,0c0,0.09,0,0.18,0,0.28c-0.03,0-0.06,0-0.09,0c-0.06,0.43-0.12,0.83-0.18,1.25
			c-0.28,0.92-0.4,2.08-0.4,3.27c0,0.61,0,1.22,0,1.84c0.03,0,0.06,0,0.09,0c0,0.34,0,0.64,0,0.98c0.15,0.52,0.28,1.16,0.28,1.84
			c-0.73-0.21-1.47-0.46-2.23-0.67c-0.15,0-0.34,0-0.49,0c0-0.03,0-0.06,0-0.09c-0.18,0-0.4,0-0.58,0c0-0.03,0-0.06,0-0.09
			c-0.24,0-0.52,0-0.76,0c0-0.03,0-0.06,0-0.09c-0.52,0-1.04,0-1.53,0c-1.71,0-3.15,0.34-4.34,0.86c-0.09,0-0.18,0-0.28,0
			c0,0.03,0,0.06,0,0.09c-0.06,0-0.12,0-0.18,0c0,0.03,0,0.06,0,0.09c-0.09,0-0.18,0-0.28,0c0,0.03,0,0.06,0,0.09
			c-0.18,0.06-0.4,0.12-0.58,0.18c0,0.03,0,0.06,0,0.09c-0.06,0-0.12,0-0.18,0c0,0.03,0,0.06,0,0.09c-0.18,0.06-0.4,0.12-0.58,0.18
			c-0.03,0.06-0.06,0.12-0.09,0.18c-0.12,0.03-0.24,0.06-0.4,0.09c0,0.03,0,0.06,0,0.09c-0.09,0.03-0.18,0.06-0.28,0.09
			c-0.03,0.06-0.06,0.12-0.09,0.18c-0.06,0-0.12,0-0.18,0c0,0.03,0,0.06,0,0.09c-0.09,0.03-0.18,0.06-0.28,0.09
			c-0.03,0.06-0.06,0.12-0.09,0.18c-0.06,0-0.12,0-0.18,0c-0.06,0.09-0.12,0.18-0.18,0.28c-0.06,0-0.12,0-0.18,0
			c-0.06,0.09-0.12,0.18-0.18,0.28c-0.03,0-0.06,0-0.09,0c-0.03,0.06-0.06,0.12-0.09,0.18c-0.06,0-0.12,0-0.18,0
			c-0.15,0.18-0.34,0.4-0.49,0.58c-0.06,0-0.12,0-0.18,0c-0.15,0.18-0.34,0.4-0.49,0.58c-0.34,0.28-0.64,0.58-0.98,0.86
			c0,0.06,0,0.12,0,0.18c-0.18,0.15-0.4,0.34-0.58,0.49c0,0.06,0,0.12,0,0.18c-0.15,0.12-0.34,0.24-0.49,0.4c0,0.06,0,0.12,0,0.18
			c-0.09,0.06-0.18,0.12-0.28,0.18c0,0.06,0,0.12,0,0.18c-0.09,0.06-0.18,0.12-0.28,0.18c0,0.06,0,0.12,0,0.18
			c-0.06,0.03-0.12,0.06-0.18,0.09c-0.03,0.09-0.06,0.18-0.09,0.28c-0.03,0-0.06,0-0.09,0c0,0.06,0,0.12,0,0.18
			c-0.06,0.03-0.12,0.06-0.18,0.09c-0.03,0.12-0.06,0.24-0.09,0.4c-0.06,0.03-0.12,0.06-0.18,0.09c-0.06,0.18-0.12,0.4-0.18,0.58
			c-0.06,0.03-0.12,0.06-0.18,0.09c-0.03,0.12-0.06,0.24-0.09,0.4c-0.03,0-0.06,0-0.09,0c-0.06,0.18-0.12,0.4-0.18,0.58
			c-0.03,0-0.06,0-0.09,0c0,0.09,0,0.18,0,0.28c-0.03,0-0.06,0-0.09,0c-0.03,0.12-0.06,0.24-0.09,0.4c-0.03,0-0.06,0-0.09,0
			c0,0.09,0,0.18,0,0.28c-0.03,0-0.06,0-0.09,0c0,0.06,0,0.12,0,0.18c-0.03,0-0.06,0-0.09,0c0,0.09,0,0.18,0,0.28
			c-0.03,0-0.06,0-0.09,0c0,0.09,0,0.18,0,0.28c-0.03,0-0.06,0-0.09,0c0,0.09,0,0.18,0,0.28c-0.03,0-0.06,0-0.09,0
			c0,0.12,0,0.24,0,0.4c-0.03,0-0.06,0-0.09,0c-0.03,0.21-0.06,0.46-0.09,0.67c-0.03,0-0.06,0-0.09,0c-0.12,0.8-0.24,1.62-0.4,2.42
			c-0.03,0.64-0.06,1.28-0.09,1.93c0,0.31-0.06,0.7,0.09,0.86c0,0.24,0,0.52,0,0.76c-1.01-0.98-1.99-1.93-3-2.91
			c-0.49-0.06-0.83-0.28-1.35-0.09c-0.61,0.21-1.04,0.73-1.44,1.16c-0.73,0.73-1.47,1.47-2.23,2.23c-0.46,0.46-1.47,1.19-1.65,1.84
			c-0.09,0.12-0.28,0.67-0.18,0.98c0.03,0,0.06,0,0.09,0c0,0.12,0,0.24,0,0.4c0.03,0,0.06,0,0.09,0c0.03,0.12,0.06,0.24,0.09,0.4
			c0.09,0.06,0.18,0.12,0.28,0.18c0,0.06,0,0.12,0,0.18c0.09,0.06,0.18,0.12,0.28,0.18c0.03,0.06,0.06,0.12,0.09,0.18
			c0.06,0,0.12,0,0.18,0c0.03,0.06,0.06,0.12,0.09,0.18c0.03,0,0.06,0,0.09,0c0,0.06,0,0.12,0,0.18c0.8,0.76,1.62,1.53,2.42,2.32
			c0.92,0.98,1.87,1.93,2.78,2.91c0.49,0.46,0.98,0.89,1.44,1.35c0,0.06,0,0.12,0,0.18c0.06,0.03,0.12,0.06,0.18,0.09
			c0,0.03,0,0.06,0,0.09c2.11,2.08,4.25,4.19,6.36,6.27c0.61,0.86,1.38,1.5,2.11,2.23c0.98,1.01,1.93,1.99,2.91,3
			c0.52,0.49,1.04,0.98,1.53,1.44c0,0.06,0,0.12,0,0.18c1.44,1.41,2.91,2.84,4.34,4.25c0.52,0.55,1.04,1.1,1.53,1.65
			c0.21,0.18,0.46,0.4,0.67,0.58c0,0.06,0,0.12,0,0.18c1.84,1.8,3.67,3.61,5.51,5.41c0.24,0.28,0.52,0.58,0.76,0.86
			c0.12,0.09,0.24,0.18,0.4,0.28c0,0.06,0,0.12,0,0.18c1.16,1.13,2.32,2.26,3.49,3.36c0.61,0.64,1.22,1.28,1.84,1.93
			c0.06,0,0.12,0,0.18,0c0,0.03,0,0.06,0,0.09c0.12,0.03,0.24,0.06,0.4,0.09c0,0.03,0,0.06,0,0.09c0.43,0.18,1.5,0.12,1.84-0.09
			c0.03-0.06,0.06-0.12,0.09-0.18c1.1-0.73,1.8-1.59,2.69-2.51c0.55-0.52,1.1-1.04,1.65-1.53c0-0.06,0-0.12,0-0.18
			c0.06-0.03,0.12-0.06,0.18-0.09c0.18-0.24,0.61-1.25,0.49-1.74c-0.43-1.53-1.62-2.29-2.6-3.27c-0.43-0.46-0.83-0.89-1.25-1.35
			c-1.35-1.32-2.69-2.63-4.04-3.95c-5.02-5.08-10.03-10.15-15.05-15.23c-1.32-1.28-2.63-2.57-3.95-3.85
			c-0.4-0.43-0.76-0.83-1.16-1.25c-0.4-0.37-0.76-0.7-1.16-1.07c0-0.06,0-0.12,0-0.18c-0.03,0-0.06,0-0.09,0
			c-0.09-0.12-0.18-0.24-0.28-0.4c-0.28-0.24-0.58-0.52-0.86-0.76c-0.03-0.15-0.06-0.34-0.09-0.49c-0.03,0-0.06,0-0.09,0
			c0-0.06,0-0.12,0-0.18c-0.03,0-0.06,0-0.09,0c-0.03-0.18-0.06-0.4-0.09-0.58c-0.03,0-0.06,0-0.09,0c0-0.12,0-0.24,0-0.4
			c-0.03,0-0.06,0-0.09,0c0-0.09,0-0.18,0-0.28c-0.03,0-0.06,0-0.09,0c0-0.12,0-0.24,0-0.4c-0.03,0-0.06,0-0.09,0
			c0-0.15,0-0.34,0-0.49c-0.03,0-0.06,0-0.09,0c0-0.15,0-0.34,0-0.49c-0.03,0-0.06,0-0.09,0c0-0.24,0-0.52,0-0.76
			c-0.09-0.31-0.21-1.56-0.09-2.02c0.03,0,0.06,0,0.09,0c0-0.21,0-0.46,0-0.67c0.03,0,0.06,0,0.09,0c0-0.15,0-0.34,0-0.49
			c0.03,0,0.06,0,0.09,0c0-0.12,0-0.24,0-0.4c0.03,0,0.06,0,0.09,0c0-0.09,0-0.18,0-0.28c0.03,0,0.06,0,0.09,0c0-0.12,0-0.24,0-0.4
			c0.03,0,0.06,0,0.09,0c0-0.06,0-0.12,0-0.18c0.03,0,0.06,0,0.09,0c0-0.09,0-0.18,0-0.28c0.03,0,0.06,0,0.09,0
			c0.06-0.18,0.12-0.4,0.18-0.58c0.03,0,0.06,0,0.09,0c0-0.06,0-0.12,0-0.18c0.03,0,0.06,0,0.09,0c0.06-0.18,0.12-0.4,0.18-0.58
			c0.06-0.03,0.12-0.06,0.18-0.09c0.03-0.12,0.06-0.24,0.09-0.4c0.06-0.03,0.12-0.06,0.18-0.09c0-0.06,0-0.12,0-0.18
			c0.06-0.03,0.12-0.06,0.18-0.09c0.03-0.09,0.06-0.18,0.09-0.28c0.12-0.09,0.24-0.18,0.4-0.28c0-0.06,0-0.12,0-0.18
			c0.18-0.15,0.4-0.34,0.58-0.49c0.37-0.4,0.7-0.76,1.07-1.16c0.06,0,0.12,0,0.18,0c0.09-0.12,0.18-0.24,0.28-0.4
			c0.06,0,0.12,0,0.18,0c0.06-0.09,0.12-0.18,0.18-0.28c0.06,0,0.12,0,0.18,0c0.03-0.06,0.06-0.12,0.09-0.18
			c0.09-0.03,0.18-0.06,0.28-0.09c0-0.03,0-0.06,0-0.09c0.18-0.06,0.4-0.12,0.58-0.18c0.03-0.06,0.06-0.12,0.09-0.18
			c0.06,0,0.12,0,0.18,0c0-0.03,0-0.06,0-0.09c0.06,0,0.12,0,0.18,0c0-0.03,0-0.06,0-0.09c0.09,0,0.18,0,0.28,0
			c0-0.03,0-0.06,0-0.09c0.06,0,0.12,0,0.18,0c0-0.03,0-0.06,0-0.09c0.09,0,0.18,0,0.28,0c0-0.03,0-0.06,0-0.09
			c0.09,0,0.18,0,0.28,0c0-0.03,0-0.06,0-0.09c0.09,0,0.18,0,0.28,0c0-0.03,0-0.06,0-0.09c0.12,0,0.24,0,0.4,0
			c0.89-0.28,2.6-0.28,3.49,0c0.12,0,0.24,0,0.4,0c0,0.03,0,0.06,0,0.09c0.09,0,0.18,0,0.28,0c0,0.03,0,0.06,0,0.09
			c0.12,0,0.24,0,0.4,0c0,0.03,0,0.06,0,0.09c0.06,0,0.12,0,0.18,0c0,0.03,0,0.06,0,0.09c0.09,0,0.18,0,0.28,0c0,0.03,0,0.06,0,0.09
			c0.09,0,0.18,0,0.28,0c0,0.03,0,0.06,0,0.09c0.18,0.06,0.4,0.12,0.58,0.18c0,0.03,0,0.06,0,0.09c0.06,0,0.12,0,0.18,0
			c0,0.03,0,0.06,0,0.09c0.06,0,0.12,0,0.18,0c0,0.03,0,0.06,0,0.09c0.06,0,0.12,0,0.18,0c0,0.03,0,0.06,0,0.09
			c0.06,0,0.12,0,0.18,0c0,0.03,0,0.06,0,0.09c0.06,0,0.12,0,0.18,0c0.03,0.06,0.06,0.12,0.09,0.18c0.12,0.03,0.24,0.06,0.4,0.09
			c0.03,0.06,0.06,0.12,0.09,0.18c0.06,0,0.12,0,0.18,0c0.03,0.06,0.06,0.12,0.09,0.18c0.06,0,0.12,0,0.18,0
			c0.06,0.09,0.12,0.18,0.18,0.28c0.06,0,0.12,0,0.18,0c0.03,0.06,0.06,0.12,0.09,0.18c0.06,0,0.12,0,0.18,0
			c0.09,0.12,0.18,0.24,0.28,0.4c0.06,0,0.12,0,0.18,0c0.09,0.12,0.18,0.24,0.28,0.4c0.06,0,0.12,0,0.18,0
			c0.21,0.24,0.46,0.52,0.67,0.76c0.06,0,0.12,0,0.18,0c0.43,0.46,0.83,0.89,1.25,1.35c0.92,0.89,1.87,1.8,2.78,2.69
			c3.64,3.67,7.28,7.34,10.89,10.98c2.42,2.39,4.83,4.77,7.25,7.13c2.05,2.08,4.13,4.19,6.18,6.27c0.06,0,0.12,0,0.18,0
			c0.15,0.18,0.34,0.4,0.49,0.58c0.06,0,0.12,0,0.18,0c0.03,0.06,0.06,0.12,0.09,0.18c0.03,0,0.06,0,0.09,0
			c0.06,0.09,0.12,0.18,0.18,0.28c0.06,0,0.12,0,0.18,0c0.12,0.15,0.24,0.34,0.4,0.49c0.06,0,0.12,0,0.18,0
			c0.09,0.12,0.18,0.24,0.28,0.4c0.06,0,0.12,0,0.18,0c0.06,0.09,0.12,0.18,0.18,0.28c0.06,0,0.12,0,0.18,0
			c0.06,0.09,0.12,0.18,0.18,0.28c0.06,0,0.12,0,0.18,0c0.06,0.09,0.12,0.18,0.18,0.28c0.06,0,0.12,0,0.18,0
			c0.06,0.09,0.12,0.18,0.18,0.28c0.06,0,0.12,0,0.18,0c0.03,0.06,0.06,0.12,0.09,0.18c0.06,0,0.12,0,0.18,0
			c0.06,0.09,0.12,0.18,0.18,0.28c0.06,0,0.12,0,0.18,0c0.03,0.06,0.06,0.12,0.09,0.18c0.06,0,0.12,0,0.18,0
			c0.03,0.06,0.06,0.12,0.09,0.18c0.09,0.03,0.18,0.06,0.28,0.09c0,0.03,0,0.06,0,0.09c0.06,0,0.12,0,0.18,0
			c0.03,0.06,0.06,0.12,0.09,0.18c0.06,0,0.12,0,0.18,0c0.03,0.06,0.06,0.12,0.09,0.18c0.06,0,0.12,0,0.18,0
			c0.03,0.06,0.06,0.12,0.09,0.18c0.06,0,0.12,0,0.18,0c0,0.03,0,0.06,0,0.09c0.06,0,0.12,0,0.18,0c0.03,0.06,0.06,0.12,0.09,0.18
			c0.12,0.03,0.24,0.06,0.4,0.09c0.03,0.06,0.06,0.12,0.09,0.18c0.12,0.03,0.24,0.06,0.4,0.09c0.03,0.06,0.06,0.12,0.09,0.18
			c0.18,0.06,0.4,0.12,0.58,0.18c0.03,0.06,0.06,0.12,0.09,0.18c0.06,0,0.12,0,0.18,0c0,0.03,0,0.06,0,0.09c0.06,0,0.12,0,0.18,0
			c0,0.03,0,0.06,0,0.09c0.06,0,0.12,0,0.18,0c0,0.03,0,0.06,0,0.09c0.12,0.03,0.24,0.06,0.4,0.09c0.03,0.06,0.06,0.12,0.09,0.18
			c0.18,0.06,0.4,0.12,0.58,0.18c0,0.03,0,0.06,0,0.09c0.06,0,0.12,0,0.18,0c0,0.03,0,0.06,0,0.09c0.18,0.06,0.4,0.12,0.58,0.18
			c0,0.03,0,0.06,0,0.09c0.09,0,0.18,0,0.28,0c0,0.03,0,0.06,0,0.09c0.18,0.06,0.4,0.12,0.58,0.18c0,0.03,0,0.06,0,0.09
			c0.06,0,0.12,0,0.18,0c0,0.03,0,0.06,0,0.09c0.15,0.03,0.34,0.06,0.49,0.09c0,0.03,0,0.06,0,0.09c0.06,0,0.12,0,0.18,0
			c0,0.03,0,0.06,0,0.09c0.09,0,0.18,0,0.28,0c0,0.03,0,0.06,0,0.09c0.06,0,0.12,0,0.18,0c0,0.03,0,0.06,0,0.09
			c0.15,0.03,0.34,0.06,0.49,0.09c0,0.03,0,0.06,0,0.09c0.09,0,0.18,0,0.28,0c0,0.03,0,0.06,0,0.09c0.06,0,0.12,0,0.18,0
			c0,0.03,0,0.06,0,0.09c0.09,0,0.18,0,0.28,0c0,0.03,0,0.06,0,0.09c0.09,0,0.18,0,0.28,0c0,0.03,0,0.06,0,0.09
			c0.09,0,0.18,0,0.28,0c0,0.03,0,0.06,0,0.09c0.09,0,0.18,0,0.28,0c3.33,1.32,7.43,1.96,12.14,1.84c0,2.45,0,4.89,0,7.34
			c-0.03,0.89-0.06,1.8-0.09,2.69c0.03,0,0.06,0,0.09,0c0,0.15,0,0.34,0,0.49c0.03,0,0.06,0,0.09,0c0,0.06,0,0.12,0,0.18
			c0.03,0.03,0.12,0.09,0.18,0.18c0.18,0.06,0.09,0,0.18,0.09c0.83-0.09,1.1-0.7,1.53-1.16c0.64-0.61,1.28-1.22,1.93-1.84
			c0-0.06,0-0.12,0-0.18c0.12-0.09,0.24-0.18,0.4-0.28c0.24-0.28,0.52-0.58,0.76-0.86c2.23-2.17,4.43-4.37,6.67-6.55
			c0-0.06,0-0.12,0-0.18c0.12-0.09,0.24-0.18,0.4-0.28c0.24-0.28,0.52-0.58,0.76-0.86c1.28-1.25,2.57-2.51,3.85-3.76
			c0-0.06,0-0.12,0-0.18c0.06-0.03,0.12-0.06,0.18-0.09c0-0.06,0-0.12,0-0.18c0.03,0,0.06,0,0.09,0c0.03-0.15,0.06-0.34,0.09-0.49
			c0.03,0,0.06,0,0.09,0c0-1.47-0.64-1.53-1.35-2.23c-0.28-0.34-0.58-0.64-0.86-0.98c-0.67-0.64-1.35-1.28-2.02-1.93
			c-4.13-4.16-8.23-8.29-12.36-12.45c-0.31,0-0.43,0.06-0.67,0.09c-0.28,1.44-0.18,3.49-0.18,5.2c0,2.88,0,5.72,0,8.59
			c-2.23,0.37-4.86,0.06-6.67-0.58c-0.12,0-0.24,0-0.4,0c0-0.03,0-0.06,0-0.09c-0.09,0-0.18,0-0.28,0c0-0.03,0-0.06,0-0.09
			c-0.12,0-0.24,0-0.4,0c0-0.03,0-0.06,0-0.09c-0.18-0.03-0.4-0.06-0.58-0.09c0-0.03,0-0.06,0-0.09c-0.06,0-0.12,0-0.18,0
			c0-0.03,0-0.06,0-0.09c-0.18-0.03-0.4-0.06-0.58-0.09c0-0.03,0-0.06,0-0.09c-0.06,0-0.12,0-0.18,0c0-0.03,0-0.06,0-0.09
			c-0.09,0-0.18,0-0.28,0c0-0.03,0-0.06,0-0.09c-0.06,0-0.12,0-0.18,0c0-0.03,0-0.06,0-0.09c-0.09,0-0.18,0-0.28,0
			c0-0.03,0-0.06,0-0.09c-0.12-0.03-0.24-0.06-0.4-0.09c0-0.03,0-0.06,0-0.09c-0.06,0-0.12,0-0.18,0c0-0.03,0-0.06,0-0.09
			c-0.09,0-0.18,0-0.28,0c0-0.03,0-0.06,0-0.09c-0.18-0.06-0.4-0.12-0.58-0.18c0-0.03,0-0.06,0-0.09c-0.06,0-0.12,0-0.18,0
			c0-0.03,0-0.06,0-0.09c-0.18-0.06-0.4-0.12-0.58-0.18c-0.03-0.06-0.06-0.12-0.09-0.18c-0.06,0-0.12,0-0.18,0c0-0.03,0-0.06,0-0.09
			c-0.06,0-0.12,0-0.18,0c0-0.03,0-0.06,0-0.09c-0.06,0-0.12,0-0.18,0c0-0.03,0-0.06,0-0.09c-0.06,0-0.12,0-0.18,0
			c-0.03-0.06-0.06-0.12-0.09-0.18c-0.18-0.06-0.4-0.12-0.58-0.18c0-0.03,0-0.06,0-0.09c-0.09-0.03-0.18-0.06-0.28-0.09
			c-0.03-0.06-0.06-0.12-0.09-0.18c-0.12-0.03-0.24-0.06-0.4-0.09c-0.03-0.06-0.06-0.12-0.09-0.18c-0.06,0-0.12,0-0.18,0
			c-0.03-0.06-0.06-0.12-0.09-0.18c-0.06,0-0.12,0-0.18,0c-0.03-0.06-0.06-0.12-0.09-0.18c-0.06,0-0.12,0-0.18,0
			c-0.03-0.06-0.06-0.12-0.09-0.18c-0.06,0-0.12,0-0.18,0c0-0.03,0-0.06,0-0.09c-0.09-0.03-0.18-0.06-0.28-0.09
			c-0.03-0.06-0.06-0.12-0.09-0.18c-0.06,0-0.12,0-0.18,0c-0.06-0.09-0.12-0.18-0.18-0.28c-0.06,0-0.12,0-0.18,0
			c-0.03-0.06-0.06-0.12-0.09-0.18c-0.06,0-0.12,0-0.18,0c-0.03-0.06-0.06-0.12-0.09-0.18c-0.09-0.03-0.18-0.06-0.28-0.09
			c-0.09-0.12-0.18-0.24-0.28-0.4c-0.06,0-0.12,0-0.18,0c-0.03-0.06-0.06-0.12-0.09-0.18c-0.09-0.03-0.18-0.06-0.28-0.09
			c-0.09-0.12-0.18-0.24-0.28-0.4c-0.06,0-0.12,0-0.18,0c-0.12-0.15-0.24-0.34-0.4-0.49c-1.47-1.04-2.6-2.32-3.85-3.58
			c-0.21-0.18-0.46-0.4-0.67-0.58c-0.06-0.09-0.12-0.18-0.18-0.28c-0.06,0-0.12,0-0.18,0c-1.59-1.62-3.15-3.21-4.74-4.83
			c-5.6-5.57-11.19-11.13-16.79-16.7c-0.61-0.64-1.22-1.28-1.84-1.93c-0.34-0.28-0.64-0.58-0.98-0.86c0-0.06,0-0.12,0-0.18
			c-0.12-0.09-0.24-0.18-0.4-0.28c-0.03-0.09-0.06-0.18-0.09-0.28c-0.06-0.03-0.12-0.06-0.18-0.09c0-0.06,0-0.12,0-0.18
			c-0.09-0.06-0.18-0.12-0.28-0.18c0-0.06,0-0.12,0-0.18c-0.06-0.03-0.12-0.06-0.18-0.09c-0.03-0.09-0.06-0.18-0.09-0.28
			c-0.03,0-0.06,0-0.09,0c0-0.06,0-0.12,0-0.18c-0.06-0.03-0.12-0.06-0.18-0.09c-0.03-0.09-0.06-0.18-0.09-0.28
			c-0.03,0-0.06,0-0.09,0c0-0.06,0-0.12,0-0.18c-0.03,0-0.06,0-0.09,0c0-0.06,0-0.12,0-0.18c-0.03,0-0.06,0-0.09,0
			c0-0.06,0-0.12,0-0.18c-0.03,0-0.06,0-0.09,0c0-0.06,0-0.12,0-0.18c-0.06-0.03-0.12-0.06-0.18-0.09c-0.37-0.86-0.7-1.74-1.07-2.6
			c0-0.12,0-0.24,0-0.4c-0.4-1.19-0.7-3.3-0.28-4.74c0.03-0.28,0.06-0.58,0.09-0.86c0.24-0.61,0.52-1.22,0.76-1.84
			c0.06-0.03,0.12-0.06,0.18-0.09c0.03-0.12,0.06-0.24,0.09-0.4c0.06-0.03,0.12-0.06,0.18-0.09c0-0.06,0-0.12,0-0.18
			c0.09-0.06,0.18-0.12,0.28-0.18c0-0.06,0-0.12,0-0.18c0.12-0.09,0.24-0.18,0.4-0.28c0-0.06,0-0.12,0-0.18
			c0.12-0.09,0.24-0.18,0.4-0.28c0.24-0.28,0.52-0.58,0.76-0.86c0.06,0,0.12,0,0.18,0c0.15-0.18,0.34-0.4,0.49-0.58
			c0.06,0,0.12,0,0.18,0c0.06-0.09,0.12-0.18,0.18-0.28c0.06,0,0.12,0,0.18,0c0.06-0.09,0.12-0.18,0.18-0.28c0.06,0,0.12,0,0.18,0
			c0.03-0.06,0.06-0.12,0.09-0.18c0.12-0.03,0.24-0.06,0.4-0.09c0.03-0.06,0.06-0.12,0.09-0.18c0.18-0.06,0.4-0.12,0.58-0.18
			c0-0.03,0-0.06,0-0.09c0.18-0.06,0.4-0.12,0.58-0.18c0-0.03,0-0.06,0-0.09c0.18-0.03,0.4-0.06,0.58-0.09
			c0.92-0.37,2.26-0.61,3.36-0.28c0.15,0,0.34,0,0.49,0c0,0.03,0,0.06,0,0.09c0.12,0,0.24,0,0.4,0c0,0.03,0,0.06,0,0.09
			c0.34,0.06,0.64,0.12,0.98,0.18c0,0.03,0,0.06,0,0.09c0.12,0.03,0.24,0.06,0.4,0.09c0,0.03,0,0.06,0,0.09c0.09,0,0.18,0,0.28,0
			c0,0.03,0,0.06,0,0.09c0.06,0,0.12,0,0.18,0c0,0.03,0,0.06,0,0.09c0.06,0,0.12,0,0.18,0c0.03,0.06,0.06,0.12,0.09,0.18
			c0.18,0.06,0.4,0.12,0.58,0.18c0.03,0.06,0.06,0.12,0.09,0.18c0.12,0.03,0.24,0.06,0.4,0.09c0.03,0.06,0.06,0.12,0.09,0.18
			c0.06,0,0.12,0,0.18,0c0.06,0.09,0.12,0.18,0.18,0.28c0.06,0,0.12,0,0.18,0c0.06,0.09,0.12,0.18,0.18,0.28c0.06,0,0.12,0,0.18,0
			c0.06,0.09,0.12,0.18,0.18,0.28c0.06,0,0.12,0,0.18,0c0.12,0.15,0.24,0.34,0.4,0.49c0.06,0,0.12,0,0.18,0
			c0.21,0.24,0.46,0.52,0.67,0.76c0.06,0,0.12,0,0.18,0c1.84,1.87,3.67,3.73,5.51,5.6c1.47,1.44,2.97,2.91,4.43,4.34
			c1.32,1.32,2.54,2.66,4.04,3.76c0.15,0.18,0.34,0.4,0.49,0.58c0.06,0,0.12,0,0.18,0c0.09,0.12,0.18,0.24,0.28,0.4
			c0.06,0,0.12,0,0.18,0c0.03,0.06,0.06,0.12,0.09,0.18c0.03,0,0.06,0,0.09,0c0.03,0.06,0.06,0.12,0.09,0.18c0.06,0,0.12,0,0.18,0
			c0.06,0.09,0.12,0.18,0.18,0.28c0.06,0,0.12,0,0.18,0c0.06,0.09,0.12,0.18,0.18,0.28c0.06,0,0.12,0,0.18,0
			c0.06,0.09,0.12,0.18,0.18,0.28c0.06,0,0.12,0,0.18,0c0.06,0.09,0.12,0.18,0.18,0.28c0.06,0,0.12,0,0.18,0
			c0.03,0.06,0.06,0.12,0.09,0.18c0.09,0.03,0.18,0.06,0.28,0.09c0,0.03,0,0.06,0,0.09c0.06,0,0.12,0,0.18,0
			c0.03,0.06,0.06,0.12,0.09,0.18c0.06,0,0.12,0,0.18,0c0.03,0.06,0.06,0.12,0.09,0.18c0.06,0,0.12,0,0.18,0
			c0.03,0.06,0.06,0.12,0.09,0.18c0.06,0,0.12,0,0.18,0c0.03,0.06,0.06,0.12,0.09,0.18c0.06,0,0.12,0,0.18,0
			c0.03,0.06,0.06,0.12,0.09,0.18c0.12,0.03,0.24,0.06,0.4,0.09c0.03,0.06,0.06,0.12,0.09,0.18c0.18,0.06,0.4,0.12,0.58,0.18
			c0.03,0.06,0.06,0.12,0.09,0.18c0.06,0,0.12,0,0.18,0c0,0.03,0,0.06,0,0.09c0.06,0,0.12,0,0.18,0c0,0.03,0,0.06,0,0.09
			c0.06,0,0.12,0,0.18,0c0,0.03,0,0.06,0,0.09c0.06,0,0.12,0,0.18,0c0,0.03,0,0.06,0,0.09c0.06,0,0.12,0,0.18,0
			c0,0.03,0,0.06,0,0.09c0.06,0,0.12,0,0.18,0c0,0.03,0,0.06,0,0.09c0.06,0,0.12,0,0.18,0c0,0.03,0,0.06,0,0.09
			c0.06,0,0.12,0,0.18,0c0,0.03,0,0.06,0,0.09c0.06,0,0.12,0,0.18,0c0,0.03,0,0.06,0,0.09c0.06,0,0.12,0,0.18,0
			c0,0.03,0,0.06,0,0.09c0.18,0.06,0.4,0.12,0.58,0.18c0,0.03,0,0.06,0,0.09c0.09,0,0.18,0,0.28,0c0,0.03,0,0.06,0,0.09
			c0.06,0,0.12,0,0.18,0c0,0.03,0,0.06,0,0.09c0.15,0.03,0.34,0.06,0.49,0.09c0,0.03,0,0.06,0,0.09c0.09,0,0.18,0,0.28,0
			c0,0.03,0,0.06,0,0.09c0.06,0,0.12,0,0.18,0c0,0.03,0,0.06,0,0.09c0.18,0.03,0.4,0.06,0.58,0.09c0,0.03,0,0.06,0,0.09
			c0.09,0,0.18,0,0.28,0c0,0.03,0,0.06,0,0.09c0.09,0,0.18,0,0.28,0c0,0.03,0,0.06,0,0.09c0.21,0.03,0.46,0.06,0.67,0.09
			c0,0.03,0,0.06,0,0.09c0.24,0.03,0.52,0.06,0.76,0.09c0,0.03,0,0.06,0,0.09c0.15,0,0.34,0,0.49,0c0,0.03,0,0.06,0,0.09
			c0.15,0,0.34,0,0.49,0c0,0.03,0,0.06,0,0.09c0.18,0,0.4,0,0.58,0c0,0.03,0,0.06,0,0.09c0.21,0,0.46,0,0.67,0c0,0.03,0,0.06,0,0.09
			c0.43,0,0.83,0,1.25,0c0,0.03,0,0.06,0,0.09c1.01-0.03,1.99-0.06,3-0.09c0-0.03,0-0.06,0-0.09c0.21,0,0.46,0,0.67,0
			c0.98-0.21,1.93-0.46,2.91-0.67c0-0.03,0-0.06,0-0.09c0.18-0.03,0.4-0.06,0.58-0.09c0-0.03,0-0.06,0-0.09c0.06,0,0.12,0,0.18,0
			c0-0.03,0-0.06,0-0.09c0.09,0,0.18,0,0.28,0c0-0.03,0-0.06,0-0.09c0.06,0,0.12,0,0.18,0c0-0.03,0-0.06,0-0.09
			c0.09,0,0.18,0,0.28,0c0-0.03,0-0.06,0-0.09c0.12-0.03,0.24-0.06,0.4-0.09c0-0.03,0-0.06,0-0.09c0.09,0,0.18,0,0.28,0
			c0-0.03,0-0.06,0-0.09c0.18-0.06,0.4-0.12,0.58-0.18c0-0.03,0-0.06,0-0.09c0.06,0,0.12,0,0.18,0c0-0.03,0-0.06,0-0.09
			c0.18-0.06,0.4-0.12,0.58-0.18c0.03-0.06,0.06-0.12,0.09-0.18c0.18-0.06,0.4-0.12,0.58-0.18c0-0.03,0-0.06,0-0.09
			c0.09-0.03,0.18-0.06,0.28-0.09c0.03-0.06,0.06-0.12,0.09-0.18c0.12-0.03,0.24-0.06,0.4-0.09c0-0.03,0-0.06,0-0.09
			c0.09-0.03,0.18-0.06,0.28-0.09c0.03-0.06,0.06-0.12,0.09-0.18c0.06,0,0.12,0,0.18,0c0.06-0.09,0.12-0.18,0.18-0.28
			c0.06,0,0.12,0,0.18,0c0.03-0.06,0.06-0.12,0.09-0.18c0.06,0,0.12,0,0.18,0c0.03-0.06,0.06-0.12,0.09-0.18
			c0.09-0.03,0.18-0.06,0.28-0.09c0.09-0.12,0.18-0.24,0.28-0.4c0.06,0,0.12,0,0.18,0c0.09-0.12,0.18-0.24,0.28-0.4
			c0.06,0,0.12,0,0.18,0c0.15-0.18,0.34-0.4,0.49-0.58c0.06,0,0.12,0,0.18,0c0.4-0.43,0.76-0.83,1.16-1.25
			c0.52-0.49,1.04-0.98,1.53-1.44c0-0.06,0-0.12,0-0.18c0.15-0.12,0.34-0.24,0.49-0.4c0-0.06,0-0.12,0-0.18
			c0.06-0.03,0.12-0.06,0.18-0.09c0-0.03,0-0.06,0-0.09c0.06-0.03,0.12-0.06,0.18-0.09c0-0.06,0-0.12,0-0.18
			c0.09-0.06,0.18-0.12,0.28-0.18c0-0.06,0-0.12,0-0.18c0.06-0.03,0.12-0.06,0.18-0.09c0-0.06,0-0.12,0-0.18
			c0.06-0.03,0.12-0.06,0.18-0.09c0-0.06,0-0.12,0-0.18c0.06-0.03,0.12-0.06,0.18-0.09c0.52-0.92,1.04-1.87,1.53-2.78
			c0-0.09,0-0.18,0-0.28c0.03,0,0.06,0,0.09,0c0-0.06,0-0.12,0-0.18c0.03,0,0.06,0,0.09,0c0.34-1.04,0.64-2.05,0.98-3.09
			c0-0.15,0-0.34,0-0.49c0.03,0,0.06,0,0.09,0c0-0.18,0-0.4,0-0.58c0.03,0,0.06,0,0.09,0c0-0.21,0-0.46,0-0.67c0.03,0,0.06,0,0.09,0
			c0-0.46,0-0.89,0-1.35c0.03,0,0.06,0,0.09,0C152.15,86.82,152.02,85.62,151.93,85.32z"/>
	</g>
	<g>
		<path class="st3" d="M95.62,65.86c0,0.03,0,0.06,0,0.09c0.24,0.03,0.52,0.06,0.76,0.09c0,0.03,0,0.06,0,0.09
			c0.21,0.03,0.46,0.06,0.67,0.09c0,0.03,0,0.06,0,0.09c0.09,0,0.18,0,0.28,0c0,0.03,0,0.06,0,0.09c0.09,0,0.18,0,0.28,0
			c0,0.03,0,0.06,0,0.09c0.09,0,0.18,0,0.28,0c0,0.03,0,0.06,0,0.09c0.06,0,0.12,0,0.18,0c0,0.03,0,0.06,0,0.09
			c0.09,0,0.18,0,0.28,0c0,0.03,0,0.06,0,0.09c0.06,0,0.12,0,0.18,0c0,0.03,0,0.06,0,0.09c0.09,0,0.18,0,0.28,0
			c0,0.03,0,0.06,0,0.09c0.18,0.06,0.4,0.12,0.58,0.18c0,0.03,0,0.06,0,0.09c0.06,0,0.12,0,0.18,0c0,0.03,0,0.06,0,0.09
			c0.06,0,0.12,0,0.18,0c0,0.03,0,0.06,0,0.09c0.18,0.06,0.4,0.12,0.58,0.18c0.03,0.06,0.06,0.12,0.09,0.18
			c0.12,0.03,0.24,0.06,0.4,0.09c0.03,0.06,0.06,0.12,0.09,0.18c0.12,0.03,0.24,0.06,0.4,0.09c0.03,0.06,0.06,0.12,0.09,0.18
			c0.06,0,0.12,0,0.18,0c0.03,0.06,0.06,0.12,0.09,0.18c0.09,0.03,0.18,0.06,0.28,0.09c0.06,0.09,0.12,0.18,0.18,0.28
			c0.06,0,0.12,0,0.18,0c0.06,0.09,0.12,0.18,0.18,0.28c0.06,0,0.12,0,0.18,0c0.12,0.15,0.24,0.34,0.4,0.49
			c0.37,0.37,0.8,0.61,1.07,1.07c0.03,0,0.06,0,0.09,0c-0.03-0.55-0.15-1.01-0.28-1.44c0-0.15,0-0.34,0-0.49
			c-0.28-0.86-0.4-1.62-0.4-2.78c0-0.49,0-0.98,0-1.44c0.03,0,0.06,0,0.09,0c0-0.21,0-0.46,0-0.67c0.03,0,0.06,0,0.09,0
			c0-0.15,0-0.34,0-0.49c0.03,0,0.06,0,0.09,0c0-0.12,0-0.24,0-0.4c0.03,0,0.06,0,0.09,0c0-0.12,0-0.24,0-0.4c0.03,0,0.06,0,0.09,0
			c0-0.12,0-0.24,0-0.4c0.03,0,0.06,0,0.09,0c0-0.09,0-0.18,0-0.28c0.03,0,0.06,0,0.09,0c0-0.09,0-0.18,0-0.28c0.03,0,0.06,0,0.09,0
			c0.03-0.18,0.06-0.4,0.09-0.58c0.03,0,0.06,0,0.09,0c0.03-0.12,0.06-0.24,0.09-0.4c0.03,0,0.06,0,0.09,0c0-0.09,0-0.18,0-0.28
			c0.03,0,0.06,0,0.09,0c0.06-0.18,0.12-0.4,0.18-0.58c0.03,0,0.06,0,0.09,0c0.03-0.12,0.06-0.24,0.09-0.4
			c0.06-0.03,0.12-0.06,0.18-0.09c0.06-0.18,0.12-0.4,0.18-0.58c0.03,0,0.06,0,0.09,0c0.03-0.09,0.06-0.18,0.09-0.28
			c0.06-0.03,0.12-0.06,0.18-0.09c0-0.06,0-0.12,0-0.18c0.09-0.06,0.18-0.12,0.28-0.18c0-0.06,0-0.12,0-0.18
			c0.09-0.06,0.18-0.12,0.28-0.18c0-0.06,0-0.12,0-0.18c0.15-0.12,0.34-0.24,0.49-0.4c0-0.06,0-0.12,0-0.18
			c0.09-0.06,0.18-0.12,0.28-0.18c0.21-0.24,0.46-0.52,0.67-0.76c0.06,0,0.12,0,0.18,0c0.12-0.15,0.24-0.34,0.4-0.49
			c0.09-0.03,0.18-0.06,0.28-0.09c0.03-0.06,0.06-0.12,0.09-0.18c0.06,0,0.12,0,0.18,0c0.06-0.09,0.12-0.18,0.18-0.28
			c0.06,0,0.12,0,0.18,0c0.03-0.06,0.06-0.12,0.09-0.18c0.06,0,0.12,0,0.18,0c0-0.03,0-0.06,0-0.09c0.06,0,0.12,0,0.18,0
			c0.03-0.06,0.06-0.12,0.09-0.18c0.18-0.06,0.4-0.12,0.58-0.18c0-0.03,0-0.06,0-0.09c0.18-0.06,0.4-0.12,0.58-0.18
			c0-0.03,0-0.06,0-0.09c0.09,0,0.18,0,0.28,0c0-0.03,0-0.06,0-0.09c0.09,0,0.18,0,0.28,0c0-0.03,0-0.06,0-0.09
			c0.09,0,0.18,0,0.28,0c0-0.03,0-0.06,0-0.09c0.09,0,0.18,0,0.28,0c0-0.03,0-0.06,0-0.09c0.34-0.03,0.64-0.06,0.98-0.09
			c0-0.03,0-0.06,0-0.09c0.34,0,0.64,0,0.98,0c0-0.03,0-0.06,0-0.09c0.24,0,0.52,0,0.76,0c0,0.03,0,0.06,0,0.09c0.4,0,0.76,0,1.16,0
			c0.8,0.18,1.62,0.4,2.42,0.58c0,0.03,0,0.06,0,0.09c0.06,0,0.12,0,0.18,0c0,0.03,0,0.06,0,0.09c0.09,0,0.18,0,0.28,0
			c0,0.03,0,0.06,0,0.09c0.18,0.06,0.4,0.12,0.58,0.18c0,0.03,0,0.06,0,0.09c0.06,0,0.12,0,0.18,0c0,0.03,0,0.06,0,0.09
			c0.18,0.06,0.4,0.12,0.58,0.18c0.03,0.06,0.06,0.12,0.09,0.18c0.12,0.03,0.24,0.06,0.4,0.09c0.03,0.06,0.06,0.12,0.09,0.18
			c0.06,0,0.12,0,0.18,0c0,0.03,0,0.06,0,0.09c0.09,0.03,0.18,0.06,0.28,0.09c0.03,0.06,0.06,0.12,0.09,0.18c0.06,0,0.12,0,0.18,0
			c0.06,0.09,0.12,0.18,0.18,0.28c0.06,0,0.12,0,0.18,0c0.06,0.09,0.12,0.18,0.18,0.28c0.06,0,0.12,0,0.18,0
			c0.09,0.12,0.18,0.24,0.28,0.4c0.37,0.28,1.28,0.95,2.11,0.67c0.95-0.31,1.5-1.1,2.11-1.74c0.09-0.06,0.18-0.12,0.28-0.18
			c0-0.03,0-0.06,0-0.09c0.06,0,0.12,0,0.18,0c0.06-0.09,0.12-0.18,0.18-0.28c0.24-0.21,0.52-0.46,0.76-0.67
			c0.34-0.37,0.64-0.7,0.98-1.07c0.06,0,0.12,0,0.18,0c0.03-0.06,0.06-0.12,0.09-0.18c0.12-0.09,0.24-0.18,0.4-0.28
			c0-0.06,0-0.12,0-0.18c0.06-0.03,0.12-0.06,0.18-0.09c0-0.09,0-0.18,0-0.28c0.03,0,0.06,0,0.09,0c0-0.34,0-0.64,0-0.98
			c-0.03,0-0.06,0-0.09,0c0-0.06,0-0.12,0-0.18c-0.03,0-0.06,0-0.09,0c-0.03-0.12-0.06-0.24-0.09-0.4c-0.34-0.37-0.64-0.7-0.98-1.07
			c-0.06,0-0.12,0-0.18,0c-0.15-0.18-0.34-0.4-0.49-0.58c-0.06,0-0.12,0-0.18,0c-0.12-0.15-0.24-0.34-0.4-0.49
			c-0.09-0.03-0.18-0.06-0.28-0.09c-0.03-0.06-0.06-0.12-0.09-0.18c-0.06,0-0.12,0-0.18,0c-0.06-0.09-0.12-0.18-0.18-0.28
			c-0.09-0.03-0.18-0.06-0.28-0.09c-0.03-0.06-0.06-0.12-0.09-0.18c-0.06,0-0.12,0-0.18,0c-0.03-0.06-0.06-0.12-0.09-0.18
			c-0.09-0.03-0.18-0.06-0.28-0.09c0-0.03,0-0.06,0-0.09c-0.06,0-0.12,0-0.18,0c-0.03-0.06-0.06-0.12-0.09-0.18
			c-0.09-0.03-0.18-0.06-0.28-0.09c0-0.03,0-0.06,0-0.09c-0.18-0.06-0.4-0.12-0.58-0.18c-0.03-0.06-0.06-0.12-0.09-0.18
			c-0.12-0.03-0.24-0.06-0.4-0.09c0-0.03,0-0.06,0-0.09c-0.06,0-0.12,0-0.18,0c0-0.03,0-0.06,0-0.09c-0.18-0.06-0.4-0.12-0.58-0.18
			c0-0.03,0-0.06,0-0.09c-0.09,0-0.18,0-0.28,0c0-0.03,0-0.06,0-0.09c-0.12-0.03-0.24-0.06-0.4-0.09c0-0.03,0-0.06,0-0.09
			c-0.28-0.06-0.58-0.12-0.86-0.18c0-0.03,0-0.06,0-0.09c-0.09,0-0.18,0-0.28,0c0-0.03,0-0.06,0-0.09c-0.09,0-0.18,0-0.28,0
			c0-0.03,0-0.06,0-0.09c-0.09,0-0.18,0-0.28,0c0-0.03,0-0.06,0-0.09c-0.12,0-0.24,0-0.4,0c0-0.03,0-0.06,0-0.09
			c-0.15,0-0.34,0-0.49,0c0-0.03,0-0.06,0-0.09c-0.34-0.03-0.64-0.06-0.98-0.09c0-0.03,0-0.06,0-0.09c-0.21,0-0.46,0-0.67,0
			c-0.49-0.15-1.1-0.18-1.74-0.18c-0.34,0-0.64,0-0.98,0c0-0.03,0-0.06,0-0.09c-0.55,0-1.1,0-1.65,0c-0.28,0.24-0.86-0.03-1.25,0.09
			c0,0.03,0,0.06,0,0.09c-0.24,0-0.52,0-0.76,0c0,0.03,0,0.06,0,0.09c-0.15,0-0.34,0-0.49,0c0,0.03,0,0.06,0,0.09
			c-0.15,0-0.34,0-0.49,0c0,0.03,0,0.06,0,0.09c-0.12,0-0.24,0-0.4,0c0,0.03,0,0.06,0,0.09c-0.12,0-0.24,0-0.4,0
			c0,0.03,0,0.06,0,0.09c-0.09,0-0.18,0-0.28,0c0,0.03,0,0.06,0,0.09c-0.12,0-0.24,0-0.4,0c-2.39,0.86-4.37,2.02-6.27,3.36
			c-0.09,0.12-0.18,0.24-0.28,0.4c-0.06,0-0.12,0-0.18,0c-0.15,0.18-0.34,0.4-0.49,0.58c-0.06,0-0.12,0-0.18,0
			c-0.49,0.52-0.98,1.04-1.44,1.53c-0.86,0.86-1.68,1.59-2.42,2.6c-0.18,0.15-0.4,0.34-0.58,0.49c0,0.06,0,0.12,0,0.18
			c-0.12,0.09-0.24,0.18-0.4,0.28c-0.03,0.09-0.06,0.18-0.09,0.28c-0.06,0.03-0.12,0.06-0.18,0.09c0,0.06,0,0.12,0,0.18
			c-0.09,0.06-0.18,0.12-0.28,0.18c-0.03,0.09-0.06,0.18-0.09,0.28c-0.06,0.03-0.12,0.06-0.18,0.09c0,0.06,0,0.12,0,0.18
			c-0.06,0.03-0.12,0.06-0.18,0.09c-0.03,0.09-0.06,0.18-0.09,0.28c-0.03,0-0.06,0-0.09,0c0,0.06,0,0.12,0,0.18
			c-0.06,0.03-0.12,0.06-0.18,0.09c-0.03,0.12-0.06,0.24-0.09,0.4c-0.06,0.03-0.12,0.06-0.18,0.09c-0.06,0.18-0.12,0.4-0.18,0.58
			c-0.03,0-0.06,0-0.09,0c0,0.06,0,0.12,0,0.18c-0.03,0-0.06,0-0.09,0c0,0.06,0,0.12,0,0.18c-0.03,0-0.06,0-0.09,0
			c0,0.06,0,0.12,0,0.18c-0.03,0-0.06,0-0.09,0c-0.06,0.18-0.12,0.4-0.18,0.58c-0.03,0-0.06,0-0.09,0c-0.18,0.58-0.4,1.16-0.58,1.74
			c0,0.12,0,0.24,0,0.4c-0.03,0-0.06,0-0.09,0c0,0.15,0,0.34,0,0.49c-0.03,0-0.06,0-0.09,0c0,0.15,0,0.34,0,0.49
			c-0.03,0-0.06,0-0.09,0c0,0.24,0,0.52,0,0.76c-0.03,0-0.06,0-0.09,0c0,0.7,0,1.41,0,2.11c0,0.31-0.06,0.7,0.09,0.86
			C94.92,65.93,95.23,65.74,95.62,65.86z"/>
		<path class="st3" d="M151.93,79.75c0-0.49,0-0.98,0-1.44c-0.03,0-0.06,0-0.09,0c0-0.24,0-0.52,0-0.76c-0.03,0-0.06,0-0.09,0
			c0-0.18,0-0.4,0-0.58c-0.03,0-0.06,0-0.09,0c0-0.18,0-0.4,0-0.58c-0.03,0-0.06,0-0.09,0c0-0.12,0-0.24,0-0.4
			c-0.03,0-0.06,0-0.09,0c0-0.15,0-0.34,0-0.49c-0.37-1.07-0.7-2.11-1.07-3.18c-0.03,0-0.06,0-0.09,0c-0.03-0.12-0.06-0.24-0.09-0.4
			c-0.03,0-0.06,0-0.09,0c0-0.06,0-0.12,0-0.18c-0.03,0-0.06,0-0.09,0c0-0.09,0-0.18,0-0.28c-0.03,0-0.06,0-0.09,0
			c-0.03-0.12-0.06-0.24-0.09-0.4c-0.03,0-0.06,0-0.09,0c-0.03-0.12-0.06-0.24-0.09-0.4c-0.06-0.03-0.12-0.06-0.18-0.09
			c-0.06-0.18-0.12-0.4-0.18-0.58c-0.06-0.03-0.12-0.06-0.18-0.09c-0.03-0.12-0.06-0.24-0.09-0.4c-0.03,0-0.06,0-0.09,0
			c-0.03-0.09-0.06-0.18-0.09-0.28c-0.06-0.03-0.12-0.06-0.18-0.09c0-0.06,0-0.12,0-0.18c-0.06-0.03-0.12-0.06-0.18-0.09
			c0-0.06,0-0.12,0-0.18c-0.06-0.03-0.12-0.06-0.18-0.09c0-0.06,0-0.12,0-0.18c-0.09-0.06-0.18-0.12-0.28-0.18c0-0.06,0-0.12,0-0.18
			c-0.24-0.21-0.52-0.46-0.76-0.67c-0.03-0.06-0.06-0.12-0.09-0.18C146.89,67,146.43,67,146,67c-0.15,0.18-0.34,0.15-0.49,0.28
			c-0.18,0.21-0.4,0.46-0.58,0.67c-0.49,0.46-0.98,0.89-1.44,1.35c-0.61,0.64-1.22,1.28-1.84,1.93c-0.34,0.28-0.64,0.58-0.98,0.86
			c-0.03,0.15-0.06,0.34-0.09,0.49c-0.03,0-0.06,0-0.09,0c0,0.34,0,0.64,0,0.98c0.03,0,0.06,0,0.09,0c0.06,0.18,0.12,0.4,0.18,0.58
			c0.15,0.12,0.34,0.24,0.49,0.4c0,0.06,0,0.12,0,0.18c0.12,0.09,0.24,0.18,0.4,0.28c0,0.06,0,0.12,0,0.18
			c0.09,0.06,0.18,0.12,0.28,0.18c0,0.06,0,0.12,0,0.18c0.03,0,0.06,0,0.09,0c0,0.06,0,0.12,0,0.18c0.06,0.03,0.12,0.06,0.18,0.09
			c0.03,0.12,0.06,0.24,0.09,0.4c0.06,0.03,0.12,0.06,0.18,0.09c0,0.06,0,0.12,0,0.18c0.03,0,0.06,0,0.09,0c0,0.06,0,0.12,0,0.18
			c0.03,0,0.06,0,0.09,0c0,0.09,0,0.18,0,0.28c0.03,0,0.06,0,0.09,0c0,0.06,0,0.12,0,0.18c0.03,0,0.06,0,0.09,0
			c0.03,0.15,0.06,0.34,0.09,0.49c0.03,0,0.06,0,0.09,0c0.15,0.67,0.34,1.35,0.49,2.02c0,0.43,0,0.83,0,1.25c0.03,0,0.06,0,0.09,0
			c-0.03,0.61-0.06,1.22-0.09,1.84c-0.03,0-0.06,0-0.09,0c-0.06,0.43-0.12,0.83-0.18,1.25c-0.03,0-0.06,0-0.09,0
			c-0.06,0.28-0.12,0.58-0.18,0.86c-0.03,0-0.06,0-0.09,0c-0.06,0.18-0.12,0.4-0.18,0.58c-0.03,0-0.06,0-0.09,0
			c0,0.06,0,0.12,0,0.18c-0.03,0-0.06,0-0.09,0c0,0.06,0,0.12,0,0.18c-0.03,0-0.06,0-0.09,0c-0.03,0.12-0.06,0.24-0.09,0.4
			c-0.06,0.03-0.12,0.06-0.18,0.09c-0.03,0.12-0.06,0.24-0.09,0.4c-0.06,0.03-0.12,0.06-0.18,0.09c0,0.06,0,0.12,0,0.18
			c-0.09,0.06-0.18,0.12-0.28,0.18c0,0.06,0,0.12,0,0.18c-0.06,0.03-0.12,0.06-0.18,0.09c-0.03,0.09-0.06,0.18-0.09,0.28
			c-0.18,0.15-0.4,0.34-0.58,0.49c0,0.06,0,0.12,0,0.18c-0.09,0.06-0.18,0.12-0.28,0.18c-0.21,0.24-0.46,0.52-0.67,0.76
			c-0.06,0-0.12,0-0.18,0c-0.18,0.21-0.4,0.46-0.58,0.67c-0.06,0-0.12,0-0.18,0c-0.09,0.12-0.18,0.24-0.28,0.4
			c-0.06,0-0.12,0-0.18,0c-0.06,0.09-0.12,0.18-0.18,0.28c-0.06,0-0.12,0-0.18,0c-0.03,0.06-0.06,0.12-0.09,0.18
			c-0.06,0-0.12,0-0.18,0c-0.03,0.06-0.06,0.12-0.09,0.18c-0.09,0.03-0.18,0.06-0.28,0.09c0,0.03,0,0.06,0,0.09
			c-0.18,0.06-0.4,0.12-0.58,0.18c-0.03,0.06-0.06,0.12-0.09,0.18c-0.06,0-0.12,0-0.18,0c0,0.03,0,0.06,0,0.09
			c-0.12,0.03-0.24,0.06-0.4,0.09c0,0.03,0,0.06,0,0.09c-0.09,0-0.18,0-0.28,0c0,0.03,0,0.06,0,0.09c-0.06,0-0.12,0-0.18,0
			c0,0.03,0,0.06,0,0.09c-0.09,0-0.18,0-0.28,0c0,0.03,0,0.06,0,0.09c-0.06,0-0.12,0-0.18,0c0,0.03,0,0.06,0,0.09
			c-0.18,0.03-0.4,0.06-0.58,0.09c0,0.03,0,0.06,0,0.09c-0.12,0-0.24,0-0.4,0c-1.25,0.4-3.46,0.4-4.74,0
			c-0.21-0.03-0.46-0.06-0.67-0.09c0-0.03,0-0.06,0-0.09c-0.18-0.03-0.4-0.06-0.58-0.09c0-0.03,0-0.06,0-0.09c-0.06,0-0.12,0-0.18,0
			c0-0.03,0-0.06,0-0.09c-0.09,0-0.18,0-0.28,0c0-0.03,0-0.06,0-0.09c-0.06,0-0.12,0-0.18,0c0-0.03,0-0.06,0-0.09
			c-0.09,0-0.18,0-0.28,0c0-0.03,0-0.06,0-0.09c-0.18-0.06-0.4-0.12-0.58-0.18c0-0.03,0-0.06,0-0.09c-0.06,0-0.12,0-0.18,0
			c0-0.03,0-0.06,0-0.09c-0.06,0-0.12,0-0.18,0c0-0.03,0-0.06,0-0.09c-0.18-0.06-0.4-0.12-0.58-0.18c-0.03-0.06-0.06-0.12-0.09-0.18
			c-0.12-0.03-0.24-0.06-0.4-0.09c-0.03-0.06-0.06-0.12-0.09-0.18c-0.12-0.03-0.24-0.06-0.4-0.09c-0.03-0.06-0.06-0.12-0.09-0.18
			c-0.06,0-0.12,0-0.18,0c-0.03-0.06-0.06-0.12-0.09-0.18c-0.06,0-0.12,0-0.18,0c-0.03-0.06-0.06-0.12-0.09-0.18
			c-0.06,0-0.12,0-0.18,0c-0.03-0.06-0.06-0.12-0.09-0.18c-0.06,0-0.12,0-0.18,0c-0.06-0.09-0.12-0.18-0.18-0.28
			c-0.06,0-0.12,0-0.18,0c-0.03-0.06-0.06-0.12-0.09-0.18c-0.06,0-0.12,0-0.18,0c-0.06-0.09-0.12-0.18-0.18-0.28
			c-0.06,0-0.12,0-0.18,0c-0.09-0.12-0.18-0.24-0.28-0.4c-0.06,0-0.12,0-0.18,0c-0.09-0.12-0.18-0.24-0.28-0.4
			c-0.06,0-0.12,0-0.18,0c-0.09-0.12-0.18-0.24-0.28-0.4c-0.06,0-0.12,0-0.18,0c-0.15-0.18-0.34-0.4-0.49-0.58
			c-0.06,0-0.12,0-0.18,0c-0.24-0.28-0.52-0.58-0.76-0.86c-0.06,0-0.12,0-0.18,0c-1.04-1.07-2.05-2.11-3.09-3.18
			c-0.98-0.92-1.93-1.87-2.91-2.78c-0.43-0.46-0.83-0.89-1.25-1.35c-0.06,0-0.12,0-0.18,0c-0.09-0.12-0.18-0.24-0.28-0.4
			c-0.34-0.28-0.64-0.58-0.98-0.86c-1.28-1.32-2.57-2.63-3.85-3.95c-0.06,0-0.12,0-0.18,0c-0.37-0.4-0.7-0.76-1.07-1.16
			c-0.06,0-0.12,0-0.18,0c-0.15-0.18-0.34-0.4-0.49-0.58c-0.06,0-0.12,0-0.18,0c-0.12-0.15-0.24-0.34-0.4-0.49
			c-0.06,0-0.12,0-0.18,0c-0.09-0.12-0.18-0.24-0.28-0.4c-0.06,0-0.12,0-0.18,0c-0.09-0.12-0.18-0.24-0.28-0.4
			c-0.06,0-0.12,0-0.18,0c-0.06-0.09-0.12-0.18-0.18-0.28c-0.06,0-0.12,0-0.18,0c-0.03-0.06-0.06-0.12-0.09-0.18
			c-0.06,0-0.12,0-0.18,0c-0.06-0.09-0.12-0.18-0.18-0.28c-0.06,0-0.12,0-0.18,0c-0.03-0.06-0.06-0.12-0.09-0.18
			c-0.09-0.03-0.18-0.06-0.28-0.09c0-0.03,0-0.06,0-0.09c-0.06,0-0.12,0-0.18,0c-0.03-0.06-0.06-0.12-0.09-0.18
			c-0.09-0.03-0.18-0.06-0.28-0.09c0-0.03,0-0.06,0-0.09c-0.12-0.03-0.24-0.06-0.4-0.09c-0.03-0.06-0.06-0.12-0.09-0.18
			c-0.12-0.03-0.24-0.06-0.4-0.09c-0.03-0.06-0.06-0.12-0.09-0.18c-0.06,0-0.12,0-0.18,0c0-0.03,0-0.06,0-0.09
			c-0.06,0-0.12,0-0.18,0c0-0.03,0-0.06,0-0.09c-0.06,0-0.12,0-0.18,0c0-0.03,0-0.06,0-0.09c-0.06,0-0.12,0-0.18,0
			c0-0.03,0-0.06,0-0.09c-0.06,0-0.12,0-0.18,0c0-0.03,0-0.06,0-0.09c-0.06,0-0.12,0-0.18,0c0-0.03,0-0.06,0-0.09
			c-0.06,0-0.12,0-0.18,0c0-0.03,0-0.06,0-0.09c-0.06,0-0.12,0-0.18,0c0-0.03,0-0.06,0-0.09c-0.18-0.06-0.4-0.12-0.58-0.18
			c0-0.03,0-0.06,0-0.09c-0.09,0-0.18,0-0.28,0c0-0.03,0-0.06,0-0.09c-0.12-0.03-0.24-0.06-0.4-0.09c0-0.03,0-0.06,0-0.09
			c-0.09,0-0.18,0-0.28,0c0-0.03,0-0.06,0-0.09c-0.09,0-0.18,0-0.28,0c0-0.03,0-0.06,0-0.09c-0.09,0-0.18,0-0.28,0
			c0-0.03,0-0.06,0-0.09c-0.09,0-0.18,0-0.28,0c0-0.03,0-0.06,0-0.09c-0.09,0-0.18,0-0.28,0c0-0.03,0-0.06,0-0.09
			c-0.24-0.03-0.52-0.06-0.76-0.09c-2.11-0.7-5.32-0.43-7.13,0.28c-0.18,0.03-0.4,0.06-0.58,0.09c0,0.03,0,0.06,0,0.09
			c-0.06,0-0.12,0-0.18,0c0,0.03,0,0.06,0,0.09c-0.09,0-0.18,0-0.28,0c0,0.03,0,0.06,0,0.09c-0.18,0.06-0.4,0.12-0.58,0.18
			c0,0.03,0,0.06,0,0.09c-0.06,0-0.12,0-0.18,0c0,0.03,0,0.06,0,0.09c-0.06,0-0.12,0-0.18,0c0,0.03,0,0.06,0,0.09
			c-0.06,0-0.12,0-0.18,0c0,0.03,0,0.06,0,0.09c-0.06,0-0.12,0-0.18,0c0,0.03,0,0.06,0,0.09c-0.06,0-0.12,0-0.18,0
			c0,0.03,0,0.06,0,0.09c-0.06,0-0.12,0-0.18,0c-0.03,0.06-0.06,0.12-0.09,0.18c-0.12,0.03-0.24,0.06-0.4,0.09c0,0.03,0,0.06,0,0.09
			c-0.09,0.03-0.18,0.06-0.28,0.09c-0.03,0.06-0.06,0.12-0.09,0.18c-0.06,0-0.12,0-0.18,0c0,0.03,0,0.06,0,0.09
			c-0.09,0.03-0.18,0.06-0.28,0.09c-0.03,0.06-0.06,0.12-0.09,0.18c-0.06,0-0.12,0-0.18,0c-0.06,0.09-0.12,0.18-0.18,0.28
			c-0.06,0-0.12,0-0.18,0c-0.09,0.12-0.18,0.24-0.28,0.4c-0.06,0-0.12,0-0.18,0c-0.12,0.15-0.24,0.34-0.4,0.49
			c-0.06,0-0.12,0-0.18,0c-0.28,0.34-0.58,0.64-0.86,0.98c-0.06,0-0.12,0-0.18,0c-0.03,0.06-0.06,0.12-0.09,0.18
			c-0.15,0.12-0.34,0.24-0.49,0.4c0,0.06,0,0.12,0,0.18c-0.34,0.28-0.64,0.58-0.98,0.86c0,0.06,0,0.12,0,0.18
			c-0.12,0.09-0.24,0.18-0.4,0.28c0,0.06,0,0.12,0,0.18c-0.06,0.03-0.12,0.06-0.18,0.09c0,0.03,0,0.06,0,0.09
			c-0.06,0.03-0.12,0.06-0.18,0.09c0,0.06,0,0.12,0,0.18c-0.06,0.03-0.12,0.06-0.18,0.09c0,0.06,0,0.12,0,0.18
			c-0.09,0.06-0.18,0.12-0.28,0.18c0,0.06,0,0.12,0,0.18c-0.06,0.03-0.12,0.06-0.18,0.09c-0.03,0.12-0.06,0.24-0.09,0.4
			c-0.06,0.03-0.12,0.06-0.18,0.09c-0.03,0.09-0.06,0.18-0.09,0.28c-0.03,0-0.06,0-0.09,0c0,0.06,0,0.12,0,0.18
			c-0.03,0-0.06,0-0.09,0c0,0.06,0,0.12,0,0.18c-0.03,0-0.06,0-0.09,0c0,0.06,0,0.12,0,0.18c-0.03,0-0.06,0-0.09,0
			c0,0.06,0,0.12,0,0.18c-0.06,0.03-0.12,0.06-0.18,0.09c0,0.06,0,0.12,0,0.18c-0.03,0-0.06,0-0.09,0c0,0.06,0,0.12,0,0.18
			c-0.03,0-0.06,0-0.09,0c0,0.09,0,0.18,0,0.28c-0.03,0-0.06,0-0.09,0c0,0.06,0,0.12,0,0.18c-0.03,0-0.06,0-0.09,0
			c-0.03,0.12-0.06,0.24-0.09,0.4c-0.03,0-0.06,0-0.09,0c0,0.09,0,0.18,0,0.28c-0.03,0-0.06,0-0.09,0c0,0.06,0,0.12,0,0.18
			c-0.03,0-0.06,0-0.09,0c-0.03,0.18-0.06,0.4-0.09,0.58c-0.03,0-0.06,0-0.09,0c0,0.09,0,0.18,0,0.28c-0.03,0-0.06,0-0.09,0
			c0,0.09,0,0.18,0,0.28c-0.03,0-0.06,0-0.09,0c0,0.09,0,0.18,0,0.28c-0.03,0-0.06,0-0.09,0c-0.06,0.43-0.12,0.83-0.18,1.25
			c-0.28,0.92-0.4,2.08-0.4,3.27c0,0.61,0,1.22,0,1.84c0.03,0,0.06,0,0.09,0c0,0.34,0,0.64,0,0.98c0.15,0.52,0.28,1.16,0.28,1.84
			c-0.73-0.21-1.47-0.46-2.23-0.67c-0.15,0-0.34,0-0.49,0c0-0.03,0-0.06,0-0.09c-0.18,0-0.4,0-0.58,0c0-0.03,0-0.06,0-0.09
			c-0.24,0-0.52,0-0.76,0c0-0.03,0-0.06,0-0.09c-0.52,0-1.04,0-1.53,0c-1.71,0-3.15,0.34-4.34,0.86c-0.09,0-0.18,0-0.28,0
			c0,0.03,0,0.06,0,0.09c-0.06,0-0.12,0-0.18,0c0,0.03,0,0.06,0,0.09c-0.09,0-0.18,0-0.28,0c0,0.03,0,0.06,0,0.09
			c-0.18,0.06-0.4,0.12-0.58,0.18c0,0.03,0,0.06,0,0.09c-0.06,0-0.12,0-0.18,0c0,0.03,0,0.06,0,0.09c-0.18,0.06-0.4,0.12-0.58,0.18
			c-0.03,0.06-0.06,0.12-0.09,0.18c-0.12,0.03-0.24,0.06-0.4,0.09c0,0.03,0,0.06,0,0.09C64,89.93,63.91,89.96,63.82,90
			c-0.03,0.06-0.06,0.12-0.09,0.18c-0.06,0-0.12,0-0.18,0c0,0.03,0,0.06,0,0.09c-0.09,0.03-0.18,0.06-0.28,0.09
			c-0.03,0.06-0.06,0.12-0.09,0.18c-0.06,0-0.12,0-0.18,0c-0.06,0.09-0.12,0.18-0.18,0.28c-0.06,0-0.12,0-0.18,0
			c-0.06,0.09-0.12,0.18-0.18,0.28c-0.03,0-0.06,0-0.09,0c-0.03,0.06-0.06,0.12-0.09,0.18c-0.06,0-0.12,0-0.18,0
			c-0.15,0.18-0.34,0.4-0.49,0.58c-0.06,0-0.12,0-0.18,0c-0.15,0.18-0.34,0.4-0.49,0.58c-0.34,0.28-0.64,0.58-0.98,0.86
			c0,0.06,0,0.12,0,0.18c-0.18,0.15-0.4,0.34-0.58,0.49c0,0.06,0,0.12,0,0.18c-0.15,0.12-0.34,0.24-0.49,0.4c0,0.06,0,0.12,0,0.18
			c-0.09,0.06-0.18,0.12-0.28,0.18c0,0.06,0,0.12,0,0.18c-0.09,0.06-0.18,0.12-0.28,0.18c0,0.06,0,0.12,0,0.18
			c-0.06,0.03-0.12,0.06-0.18,0.09c-0.03,0.09-0.06,0.18-0.09,0.28c-0.03,0-0.06,0-0.09,0c0,0.06,0,0.12,0,0.18
			c-0.06,0.03-0.12,0.06-0.18,0.09c-0.03,0.12-0.06,0.24-0.09,0.4c-0.06,0.03-0.12,0.06-0.18,0.09c-0.06,0.18-0.12,0.4-0.18,0.58
			c-0.06,0.03-0.12,0.06-0.18,0.09c-0.03,0.12-0.06,0.24-0.09,0.4c-0.03,0-0.06,0-0.09,0c-0.06,0.18-0.12,0.4-0.18,0.58
			c-0.03,0-0.06,0-0.09,0c0,0.09,0,0.18,0,0.28c-0.03,0-0.06,0-0.09,0c-0.03,0.12-0.06,0.24-0.09,0.4c-0.03,0-0.06,0-0.09,0
			c0,0.09,0,0.18,0,0.28c-0.03,0-0.06,0-0.09,0c0,0.06,0,0.12,0,0.18c-0.03,0-0.06,0-0.09,0c0,0.09,0,0.18,0,0.28
			c-0.03,0-0.06,0-0.09,0c0,0.09,0,0.18,0,0.28c-0.03,0-0.06,0-0.09,0c0,0.09,0,0.18,0,0.28c-0.03,0-0.06,0-0.09,0
			c0,0.12,0,0.24,0,0.4c-0.03,0-0.06,0-0.09,0c-0.03,0.21-0.06,0.46-0.09,0.67c-0.03,0-0.06,0-0.09,0c-0.12,0.8-0.24,1.62-0.4,2.42
			c-0.03,0.64-0.06,1.28-0.09,1.93c0,0.31-0.06,0.7,0.09,0.86c0,0.24,0,0.52,0,0.76c-1.01-0.98-1.99-1.93-3-2.91
			c-0.49-0.06-0.83-0.28-1.35-0.09c-0.61,0.21-1.04,0.73-1.44,1.16c-0.73,0.73-1.47,1.47-2.23,2.23c-0.46,0.46-1.47,1.19-1.65,1.84
			c-0.09,0.12-0.28,0.67-0.18,0.98c0.03,0,0.06,0,0.09,0c0,0.12,0,0.24,0,0.4c0.03,0,0.06,0,0.09,0c0.03,0.12,0.06,0.24,0.09,0.4
			c0.09,0.06,0.18,0.12,0.28,0.18c0,0.06,0,0.12,0,0.18c0.09,0.06,0.18,0.12,0.28,0.18c0.03,0.06,0.06,0.12,0.09,0.18
			c0.06,0,0.12,0,0.18,0c0.03,0.06,0.06,0.12,0.09,0.18c0.03,0,0.06,0,0.09,0c0,0.06,0,0.12,0,0.18c0.8,0.76,1.62,1.53,2.42,2.32
			c0.92,0.98,1.87,1.93,2.78,2.91c0.49,0.46,0.98,0.89,1.44,1.35c0,0.06,0,0.12,0,0.18c0.06,0.03,0.12,0.06,0.18,0.09
			c0,0.03,0,0.06,0,0.09c2.11,2.08,4.25,4.19,6.36,6.27c0.61,0.86,1.38,1.5,2.11,2.23c0.98,1.01,1.93,1.99,2.91,3
			c0.52,0.49,1.04,0.98,1.53,1.44c0,0.06,0,0.12,0,0.18c1.44,1.41,2.91,2.84,4.34,4.25c0.52,0.55,1.04,1.1,1.53,1.65
			c0.21,0.18,0.46,0.4,0.67,0.58c0,0.06,0,0.12,0,0.18c1.84,1.8,3.67,3.61,5.51,5.41c0.24,0.28,0.52,0.58,0.76,0.86
			c0.12,0.09,0.24,0.18,0.4,0.28c0,0.06,0,0.12,0,0.18c1.16,1.13,2.32,2.26,3.49,3.36c0.61,0.64,1.22,1.28,1.84,1.93
			c0.06,0,0.12,0,0.18,0c0,0.03,0,0.06,0,0.09c0.12,0.03,0.24,0.06,0.4,0.09c0,0.03,0,0.06,0,0.09c0.43,0.18,1.5,0.12,1.84-0.09
			c0.03-0.06,0.06-0.12,0.09-0.18c1.1-0.73,1.8-1.59,2.69-2.51c0.55-0.52,1.1-1.04,1.65-1.53c0-0.06,0-0.12,0-0.18
			c0.06-0.03,0.12-0.06,0.18-0.09c0.18-0.24,0.61-1.25,0.49-1.74c-0.43-1.53-1.62-2.29-2.6-3.27c-0.43-0.46-0.83-0.89-1.25-1.35
			c-1.35-1.32-2.69-2.63-4.04-3.95c-5.02-5.08-10.03-10.15-15.05-15.23c-1.32-1.28-2.63-2.57-3.95-3.85
			c-0.4-0.43-0.76-0.83-1.16-1.25c-0.4-0.37-0.76-0.7-1.16-1.07c0-0.06,0-0.12,0-0.18c-0.03,0-0.06,0-0.09,0
			c-0.09-0.12-0.18-0.24-0.28-0.4c-0.28-0.24-0.58-0.52-0.86-0.76c-0.03-0.15-0.06-0.34-0.09-0.49c-0.03,0-0.06,0-0.09,0
			c0-0.06,0-0.12,0-0.18c-0.03,0-0.06,0-0.09,0c-0.03-0.18-0.06-0.4-0.09-0.58c-0.03,0-0.06,0-0.09,0c0-0.12,0-0.24,0-0.4
			c-0.03,0-0.06,0-0.09,0c0-0.09,0-0.18,0-0.28c-0.03,0-0.06,0-0.09,0c0-0.12,0-0.24,0-0.4c-0.03,0-0.06,0-0.09,0
			c0-0.15,0-0.34,0-0.49c-0.03,0-0.06,0-0.09,0c0-0.15,0-0.34,0-0.49c-0.03,0-0.06,0-0.09,0c0-0.24,0-0.52,0-0.76
			c-0.09-0.31-0.21-1.56-0.09-2.02c0.03,0,0.06,0,0.09,0c0-0.21,0-0.46,0-0.67c0.03,0,0.06,0,0.09,0c0-0.15,0-0.34,0-0.49
			c0.03,0,0.06,0,0.09,0c0-0.12,0-0.24,0-0.4c0.03,0,0.06,0,0.09,0c0-0.09,0-0.18,0-0.28c0.03,0,0.06,0,0.09,0c0-0.12,0-0.24,0-0.4
			c0.03,0,0.06,0,0.09,0c0-0.06,0-0.12,0-0.18c0.03,0,0.06,0,0.09,0c0-0.09,0-0.18,0-0.28c0.03,0,0.06,0,0.09,0
			c0.06-0.18,0.12-0.4,0.18-0.58c0.03,0,0.06,0,0.09,0c0-0.06,0-0.12,0-0.18c0.03,0,0.06,0,0.09,0c0.06-0.18,0.12-0.4,0.18-0.58
			c0.06-0.03,0.12-0.06,0.18-0.09c0.03-0.12,0.06-0.24,0.09-0.4c0.06-0.03,0.12-0.06,0.18-0.09c0-0.06,0-0.12,0-0.18
			c0.06-0.03,0.12-0.06,0.18-0.09c0.03-0.09,0.06-0.18,0.09-0.28c0.12-0.09,0.24-0.18,0.4-0.28c0-0.06,0-0.12,0-0.18
			c0.18-0.15,0.4-0.34,0.58-0.49c0.37-0.4,0.7-0.76,1.07-1.16c0.06,0,0.12,0,0.18,0c0.09-0.12,0.18-0.24,0.28-0.4
			c0.06,0,0.12,0,0.18,0c0.06-0.09,0.12-0.18,0.18-0.28c0.06,0,0.12,0,0.18,0c0.03-0.06,0.06-0.12,0.09-0.18
			c0.09-0.03,0.18-0.06,0.28-0.09c0-0.03,0-0.06,0-0.09c0.18-0.06,0.4-0.12,0.58-0.18c0.03-0.06,0.06-0.12,0.09-0.18
			c0.06,0,0.12,0,0.18,0c0-0.03,0-0.06,0-0.09c0.06,0,0.12,0,0.18,0c0-0.03,0-0.06,0-0.09c0.09,0,0.18,0,0.28,0
			c0-0.03,0-0.06,0-0.09c0.06,0,0.12,0,0.18,0c0-0.03,0-0.06,0-0.09c0.09,0,0.18,0,0.28,0c0-0.03,0-0.06,0-0.09
			c0.09,0,0.18,0,0.28,0c0-0.03,0-0.06,0-0.09c0.09,0,0.18,0,0.28,0c0-0.03,0-0.06,0-0.09c0.12,0,0.24,0,0.4,0
			c0.89-0.28,2.6-0.28,3.49,0c0.12,0,0.24,0,0.4,0c0,0.03,0,0.06,0,0.09c0.09,0,0.18,0,0.28,0c0,0.03,0,0.06,0,0.09
			c0.12,0,0.24,0,0.4,0c0,0.03,0,0.06,0,0.09c0.06,0,0.12,0,0.18,0c0,0.03,0,0.06,0,0.09c0.09,0,0.18,0,0.28,0c0,0.03,0,0.06,0,0.09
			c0.09,0,0.18,0,0.28,0c0,0.03,0,0.06,0,0.09c0.18,0.06,0.4,0.12,0.58,0.18c0,0.03,0,0.06,0,0.09c0.06,0,0.12,0,0.18,0
			c0,0.03,0,0.06,0,0.09c0.06,0,0.12,0,0.18,0c0,0.03,0,0.06,0,0.09c0.06,0,0.12,0,0.18,0c0,0.03,0,0.06,0,0.09
			c0.06,0,0.12,0,0.18,0c0,0.03,0,0.06,0,0.09c0.06,0,0.12,0,0.18,0c0.03,0.06,0.06,0.12,0.09,0.18c0.12,0.03,0.24,0.06,0.4,0.09
			c0.03,0.06,0.06,0.12,0.09,0.18c0.06,0,0.12,0,0.18,0c0.03,0.06,0.06,0.12,0.09,0.18c0.06,0,0.12,0,0.18,0
			c0.06,0.09,0.12,0.18,0.18,0.28c0.06,0,0.12,0,0.18,0c0.03,0.06,0.06,0.12,0.09,0.18c0.06,0,0.12,0,0.18,0
			c0.09,0.12,0.18,0.24,0.28,0.4c0.06,0,0.12,0,0.18,0c0.09,0.12,0.18,0.24,0.28,0.4c0.06,0,0.12,0,0.18,0
			c0.21,0.24,0.46,0.52,0.67,0.76c0.06,0,0.12,0,0.18,0c0.43,0.46,0.83,0.89,1.25,1.35c0.92,0.89,1.87,1.8,2.78,2.69
			c3.64,3.67,7.28,7.34,10.89,10.98c2.42,2.39,4.83,4.77,7.25,7.13c2.05,2.08,4.13,4.19,6.18,6.27c0.06,0,0.12,0,0.18,0
			c0.15,0.18,0.34,0.4,0.49,0.58c0.06,0,0.12,0,0.18,0c0.03,0.06,0.06,0.12,0.09,0.18c0.03,0,0.06,0,0.09,0
			c0.06,0.09,0.12,0.18,0.18,0.28c0.06,0,0.12,0,0.18,0c0.12,0.15,0.24,0.34,0.4,0.49c0.06,0,0.12,0,0.18,0
			c0.09,0.12,0.18,0.24,0.28,0.4c0.06,0,0.12,0,0.18,0c0.06,0.09,0.12,0.18,0.18,0.28c0.06,0,0.12,0,0.18,0
			c0.06,0.09,0.12,0.18,0.18,0.28c0.06,0,0.12,0,0.18,0c0.06,0.09,0.12,0.18,0.18,0.28c0.06,0,0.12,0,0.18,0
			c0.06,0.09,0.12,0.18,0.18,0.28c0.06,0,0.12,0,0.18,0c0.03,0.06,0.06,0.12,0.09,0.18c0.06,0,0.12,0,0.18,0
			c0.06,0.09,0.12,0.18,0.18,0.28c0.06,0,0.12,0,0.18,0c0.03,0.06,0.06,0.12,0.09,0.18c0.06,0,0.12,0,0.18,0
			c0.03,0.06,0.06,0.12,0.09,0.18c0.09,0.03,0.18,0.06,0.28,0.09c0,0.03,0,0.06,0,0.09c0.06,0,0.12,0,0.18,0
			c0.03,0.06,0.06,0.12,0.09,0.18c0.06,0,0.12,0,0.18,0c0.03,0.06,0.06,0.12,0.09,0.18c0.06,0,0.12,0,0.18,0
			c0.03,0.06,0.06,0.12,0.09,0.18c0.06,0,0.12,0,0.18,0c0,0.03,0,0.06,0,0.09c0.06,0,0.12,0,0.18,0c0.03,0.06,0.06,0.12,0.09,0.18
			c0.12,0.03,0.24,0.06,0.4,0.09c0.03,0.06,0.06,0.12,0.09,0.18c0.12,0.03,0.24,0.06,0.4,0.09c0.03,0.06,0.06,0.12,0.09,0.18
			c0.18,0.06,0.4,0.12,0.58,0.18c0.03,0.06,0.06,0.12,0.09,0.18c0.06,0,0.12,0,0.18,0c0,0.03,0,0.06,0,0.09c0.06,0,0.12,0,0.18,0
			c0,0.03,0,0.06,0,0.09c0.06,0,0.12,0,0.18,0c0,0.03,0,0.06,0,0.09c0.12,0.03,0.24,0.06,0.4,0.09c0.03,0.06,0.06,0.12,0.09,0.18
			c0.18,0.06,0.4,0.12,0.58,0.18c0,0.03,0,0.06,0,0.09c0.06,0,0.12,0,0.18,0c0,0.03,0,0.06,0,0.09c0.18,0.06,0.4,0.12,0.58,0.18
			c0,0.03,0,0.06,0,0.09c0.09,0,0.18,0,0.28,0c0,0.03,0,0.06,0,0.09c0.18,0.06,0.4,0.12,0.58,0.18c0,0.03,0,0.06,0,0.09
			c0.06,0,0.12,0,0.18,0c0,0.03,0,0.06,0,0.09c0.15,0.03,0.34,0.06,0.49,0.09c0,0.03,0,0.06,0,0.09c0.06,0,0.12,0,0.18,0
			c0,0.03,0,0.06,0,0.09c0.09,0,0.18,0,0.28,0c0,0.03,0,0.06,0,0.09c0.06,0,0.12,0,0.18,0c0,0.03,0,0.06,0,0.09
			c0.15,0.03,0.34,0.06,0.49,0.09c0,0.03,0,0.06,0,0.09c0.09,0,0.18,0,0.28,0c0,0.03,0,0.06,0,0.09c0.06,0,0.12,0,0.18,0
			c0,0.03,0,0.06,0,0.09c0.09,0,0.18,0,0.28,0c0,0.03,0,0.06,0,0.09c0.09,0,0.18,0,0.28,0c0,0.03,0,0.06,0,0.09
			c0.09,0,0.18,0,0.28,0c0,0.03,0,0.06,0,0.09c0.09,0,0.18,0,0.28,0c3.33,1.32,7.43,1.96,12.14,1.84c0,2.45,0,4.89,0,7.34
			c-0.03,0.89-0.06,1.8-0.09,2.69c0.03,0,0.06,0,0.09,0c0,0.15,0,0.34,0,0.49c0.03,0,0.06,0,0.09,0c0,0.06,0,0.12,0,0.18
			c0.03,0.03,0.12,0.09,0.18,0.18c0.18,0.06,0.09,0,0.18,0.09c0.83-0.09,1.1-0.7,1.53-1.16c0.64-0.61,1.28-1.22,1.93-1.84
			c0-0.06,0-0.12,0-0.18c0.12-0.09,0.24-0.18,0.4-0.28c0.24-0.28,0.52-0.58,0.76-0.86c2.23-2.17,4.43-4.37,6.67-6.55
			c0-0.06,0-0.12,0-0.18c0.12-0.09,0.24-0.18,0.4-0.28c0.24-0.28,0.52-0.58,0.76-0.86c1.28-1.25,2.57-2.51,3.85-3.76
			c0-0.06,0-0.12,0-0.18c0.06-0.03,0.12-0.06,0.18-0.09c0-0.06,0-0.12,0-0.18c0.03,0,0.06,0,0.09,0c0.03-0.15,0.06-0.34,0.09-0.49
			c0.03,0,0.06,0,0.09,0c0-1.47-0.64-1.53-1.35-2.23c-0.28-0.34-0.58-0.64-0.86-0.98c-0.67-0.64-1.35-1.28-2.02-1.93
			c-4.13-4.16-8.23-8.29-12.36-12.45c-0.31,0-0.43,0.06-0.67,0.09c-0.28,1.44-0.18,3.49-0.18,5.2c0,2.87,0,5.72,0,8.59
			c-2.23,0.37-4.86,0.06-6.67-0.58c-0.12,0-0.24,0-0.4,0c0-0.03,0-0.06,0-0.09c-0.09,0-0.18,0-0.28,0c0-0.03,0-0.06,0-0.09
			c-0.12,0-0.24,0-0.4,0c0-0.03,0-0.06,0-0.09c-0.18-0.03-0.4-0.06-0.58-0.09c0-0.03,0-0.06,0-0.09c-0.06,0-0.12,0-0.18,0
			c0-0.03,0-0.06,0-0.09c-0.18-0.03-0.4-0.06-0.58-0.09c0-0.03,0-0.06,0-0.09c-0.06,0-0.12,0-0.18,0c0-0.03,0-0.06,0-0.09
			c-0.09,0-0.18,0-0.28,0c0-0.03,0-0.06,0-0.09c-0.06,0-0.12,0-0.18,0c0-0.03,0-0.06,0-0.09c-0.09,0-0.18,0-0.28,0
			c0-0.03,0-0.06,0-0.09c-0.12-0.03-0.24-0.06-0.4-0.09c0-0.03,0-0.06,0-0.09c-0.06,0-0.12,0-0.18,0c0-0.03,0-0.06,0-0.09
			c-0.09,0-0.18,0-0.28,0c0-0.03,0-0.06,0-0.09c-0.18-0.06-0.4-0.12-0.58-0.18c0-0.03,0-0.06,0-0.09c-0.06,0-0.12,0-0.18,0
			c0-0.03,0-0.06,0-0.09c-0.18-0.06-0.4-0.12-0.58-0.18c-0.03-0.06-0.06-0.12-0.09-0.18c-0.06,0-0.12,0-0.18,0c0-0.03,0-0.06,0-0.09
			c-0.06,0-0.12,0-0.18,0c0-0.03,0-0.06,0-0.09c-0.06,0-0.12,0-0.18,0c0-0.03,0-0.06,0-0.09c-0.06,0-0.12,0-0.18,0
			c-0.03-0.06-0.06-0.12-0.09-0.18c-0.18-0.06-0.4-0.12-0.58-0.18c0-0.03,0-0.06,0-0.09c-0.09-0.03-0.18-0.06-0.28-0.09
			c-0.03-0.06-0.06-0.12-0.09-0.18c-0.12-0.03-0.24-0.06-0.4-0.09c-0.03-0.06-0.06-0.12-0.09-0.18c-0.06,0-0.12,0-0.18,0
			c-0.03-0.06-0.06-0.12-0.09-0.18c-0.06,0-0.12,0-0.18,0c-0.03-0.06-0.06-0.12-0.09-0.18c-0.06,0-0.12,0-0.18,0
			c-0.03-0.06-0.06-0.12-0.09-0.18c-0.06,0-0.12,0-0.18,0c0-0.03,0-0.06,0-0.09c-0.09-0.03-0.18-0.06-0.28-0.09
			c-0.03-0.06-0.06-0.12-0.09-0.18c-0.06,0-0.12,0-0.18,0c-0.06-0.09-0.12-0.18-0.18-0.28c-0.06,0-0.12,0-0.18,0
			c-0.03-0.06-0.06-0.12-0.09-0.18c-0.06,0-0.12,0-0.18,0c-0.03-0.06-0.06-0.12-0.09-0.18c-0.09-0.03-0.18-0.06-0.28-0.09
			c-0.09-0.12-0.18-0.24-0.28-0.4c-0.06,0-0.12,0-0.18,0c-0.03-0.06-0.06-0.12-0.09-0.18c-0.09-0.03-0.18-0.06-0.28-0.09
			c-0.09-0.12-0.18-0.24-0.28-0.4c-0.06,0-0.12,0-0.18,0c-0.12-0.15-0.24-0.34-0.4-0.49c-1.47-1.04-2.6-2.32-3.85-3.58
			c-0.21-0.18-0.46-0.4-0.67-0.58c-0.06-0.09-0.12-0.18-0.18-0.28c-0.06,0-0.12,0-0.18,0c-1.59-1.62-3.15-3.21-4.74-4.83
			c-5.6-5.57-11.19-11.13-16.79-16.7c-0.61-0.64-1.22-1.28-1.84-1.93c-0.34-0.28-0.64-0.58-0.98-0.86c0-0.06,0-0.12,0-0.18
			c-0.12-0.09-0.24-0.18-0.4-0.28c-0.03-0.09-0.06-0.18-0.09-0.28c-0.06-0.03-0.12-0.06-0.18-0.09c0-0.06,0-0.12,0-0.18
			c-0.09-0.06-0.18-0.12-0.28-0.18c0-0.06,0-0.12,0-0.18c-0.06-0.03-0.12-0.06-0.18-0.09c-0.03-0.09-0.06-0.18-0.09-0.28
			c-0.03,0-0.06,0-0.09,0c0-0.06,0-0.12,0-0.18c-0.06-0.03-0.12-0.06-0.18-0.09c-0.03-0.09-0.06-0.18-0.09-0.28
			c-0.03,0-0.06,0-0.09,0c0-0.06,0-0.12,0-0.18c-0.03,0-0.06,0-0.09,0c0-0.06,0-0.12,0-0.18c-0.03,0-0.06,0-0.09,0
			c0-0.06,0-0.12,0-0.18c-0.03,0-0.06,0-0.09,0c0-0.06,0-0.12,0-0.18c-0.06-0.03-0.12-0.06-0.18-0.09c-0.37-0.86-0.7-1.74-1.07-2.6
			c0-0.12,0-0.24,0-0.4c-0.4-1.19-0.7-3.3-0.28-4.74c0.03-0.28,0.06-0.58,0.09-0.86c0.24-0.61,0.52-1.22,0.76-1.84
			c0.06-0.03,0.12-0.06,0.18-0.09c0.03-0.12,0.06-0.24,0.09-0.4c0.06-0.03,0.12-0.06,0.18-0.09c0-0.06,0-0.12,0-0.18
			c0.09-0.06,0.18-0.12,0.28-0.18c0-0.06,0-0.12,0-0.18c0.12-0.09,0.24-0.18,0.4-0.28c0-0.06,0-0.12,0-0.18
			c0.12-0.09,0.24-0.18,0.4-0.28c0.24-0.28,0.52-0.58,0.76-0.86c0.06,0,0.12,0,0.18,0c0.15-0.18,0.34-0.4,0.49-0.58
			c0.06,0,0.12,0,0.18,0c0.06-0.09,0.12-0.18,0.18-0.28c0.06,0,0.12,0,0.18,0c0.06-0.09,0.12-0.18,0.18-0.28c0.06,0,0.12,0,0.18,0
			c0.03-0.06,0.06-0.12,0.09-0.18c0.12-0.03,0.24-0.06,0.4-0.09c0.03-0.06,0.06-0.12,0.09-0.18c0.18-0.06,0.4-0.12,0.58-0.18
			c0-0.03,0-0.06,0-0.09c0.18-0.06,0.4-0.12,0.58-0.18c0-0.03,0-0.06,0-0.09c0.18-0.03,0.4-0.06,0.58-0.09
			c0.92-0.37,2.26-0.61,3.36-0.28c0.15,0,0.34,0,0.49,0c0,0.03,0,0.06,0,0.09c0.12,0,0.24,0,0.4,0c0,0.03,0,0.06,0,0.09
			c0.34,0.06,0.64,0.12,0.98,0.18c0,0.03,0,0.06,0,0.09c0.12,0.03,0.24,0.06,0.4,0.09c0,0.03,0,0.06,0,0.09c0.09,0,0.18,0,0.28,0
			c0,0.03,0,0.06,0,0.09c0.06,0,0.12,0,0.18,0c0,0.03,0,0.06,0,0.09c0.06,0,0.12,0,0.18,0c0.03,0.06,0.06,0.12,0.09,0.18
			c0.18,0.06,0.4,0.12,0.58,0.18c0.03,0.06,0.06,0.12,0.09,0.18c0.12,0.03,0.24,0.06,0.4,0.09c0.03,0.06,0.06,0.12,0.09,0.18
			c0.06,0,0.12,0,0.18,0c0.06,0.09,0.12,0.18,0.18,0.28c0.06,0,0.12,0,0.18,0c0.06,0.09,0.12,0.18,0.18,0.28c0.06,0,0.12,0,0.18,0
			c0.06,0.09,0.12,0.18,0.18,0.28c0.06,0,0.12,0,0.18,0c0.12,0.15,0.24,0.34,0.4,0.49c0.06,0,0.12,0,0.18,0
			c0.21,0.24,0.46,0.52,0.67,0.76c0.06,0,0.12,0,0.18,0c1.84,1.87,3.67,3.73,5.51,5.6c1.47,1.44,2.97,2.91,4.43,4.34
			c1.32,1.32,2.54,2.66,4.04,3.76c0.15,0.18,0.34,0.4,0.49,0.58c0.06,0,0.12,0,0.18,0c0.09,0.12,0.18,0.24,0.28,0.4
			c0.06,0,0.12,0,0.18,0c0.03,0.06,0.06,0.12,0.09,0.18c0.03,0,0.06,0,0.09,0c0.03,0.06,0.06,0.12,0.09,0.18c0.06,0,0.12,0,0.18,0
			c0.06,0.09,0.12,0.18,0.18,0.28c0.06,0,0.12,0,0.18,0c0.06,0.09,0.12,0.18,0.18,0.28c0.06,0,0.12,0,0.18,0
			c0.06,0.09,0.12,0.18,0.18,0.28c0.06,0,0.12,0,0.18,0c0.06,0.09,0.12,0.18,0.18,0.28c0.06,0,0.12,0,0.18,0
			c0.03,0.06,0.06,0.12,0.09,0.18c0.09,0.03,0.18,0.06,0.28,0.09c0,0.03,0,0.06,0,0.09c0.06,0,0.12,0,0.18,0
			c0.03,0.06,0.06,0.12,0.09,0.18c0.06,0,0.12,0,0.18,0c0.03,0.06,0.06,0.12,0.09,0.18c0.06,0,0.12,0,0.18,0
			c0.03,0.06,0.06,0.12,0.09,0.18c0.06,0,0.12,0,0.18,0c0.03,0.06,0.06,0.12,0.09,0.18c0.06,0,0.12,0,0.18,0
			c0.03,0.06,0.06,0.12,0.09,0.18c0.12,0.03,0.24,0.06,0.4,0.09c0.03,0.06,0.06,0.12,0.09,0.18c0.18,0.06,0.4,0.12,0.58,0.18
			c0.03,0.06,0.06,0.12,0.09,0.18c0.06,0,0.12,0,0.18,0c0,0.03,0,0.06,0,0.09c0.06,0,0.12,0,0.18,0c0,0.03,0,0.06,0,0.09
			c0.06,0,0.12,0,0.18,0c0,0.03,0,0.06,0,0.09c0.06,0,0.12,0,0.18,0c0,0.03,0,0.06,0,0.09c0.06,0,0.12,0,0.18,0
			c0,0.03,0,0.06,0,0.09c0.06,0,0.12,0,0.18,0c0,0.03,0,0.06,0,0.09c0.06,0,0.12,0,0.18,0c0,0.03,0,0.06,0,0.09
			c0.06,0,0.12,0,0.18,0c0,0.03,0,0.06,0,0.09c0.06,0,0.12,0,0.18,0c0,0.03,0,0.06,0,0.09c0.06,0,0.12,0,0.18,0
			c0,0.03,0,0.06,0,0.09c0.18,0.06,0.4,0.12,0.58,0.18c0,0.03,0,0.06,0,0.09c0.09,0,0.18,0,0.28,0c0,0.03,0,0.06,0,0.09
			c0.06,0,0.12,0,0.18,0c0,0.03,0,0.06,0,0.09c0.15,0.03,0.34,0.06,0.49,0.09c0,0.03,0,0.06,0,0.09c0.09,0,0.18,0,0.28,0
			c0,0.03,0,0.06,0,0.09c0.06,0,0.12,0,0.18,0c0,0.03,0,0.06,0,0.09c0.18,0.03,0.4,0.06,0.58,0.09c0,0.03,0,0.06,0,0.09
			c0.09,0,0.18,0,0.28,0c0,0.03,0,0.06,0,0.09c0.09,0,0.18,0,0.28,0c0,0.03,0,0.06,0,0.09c0.21,0.03,0.46,0.06,0.67,0.09
			c0,0.03,0,0.06,0,0.09c0.24,0.03,0.52,0.06,0.76,0.09c0,0.03,0,0.06,0,0.09c0.15,0,0.34,0,0.49,0c0,0.03,0,0.06,0,0.09
			c0.15,0,0.34,0,0.49,0c0,0.03,0,0.06,0,0.09c0.18,0,0.4,0,0.58,0c0,0.03,0,0.06,0,0.09c0.21,0,0.46,0,0.67,0c0,0.03,0,0.06,0,0.09
			c0.43,0,0.83,0,1.25,0c0,0.03,0,0.06,0,0.09c1.01-0.03,1.99-0.06,3-0.09c0-0.03,0-0.06,0-0.09c0.21,0,0.46,0,0.67,0
			c0.98-0.21,1.93-0.46,2.91-0.67c0-0.03,0-0.06,0-0.09c0.18-0.03,0.4-0.06,0.58-0.09c0-0.03,0-0.06,0-0.09c0.06,0,0.12,0,0.18,0
			c0-0.03,0-0.06,0-0.09c0.09,0,0.18,0,0.28,0c0-0.03,0-0.06,0-0.09c0.06,0,0.12,0,0.18,0c0-0.03,0-0.06,0-0.09
			c0.09,0,0.18,0,0.28,0c0-0.03,0-0.06,0-0.09c0.12-0.03,0.24-0.06,0.4-0.09c0-0.03,0-0.06,0-0.09c0.09,0,0.18,0,0.28,0
			c0-0.03,0-0.06,0-0.09c0.18-0.06,0.4-0.12,0.58-0.18c0-0.03,0-0.06,0-0.09c0.06,0,0.12,0,0.18,0c0-0.03,0-0.06,0-0.09
			c0.18-0.06,0.4-0.12,0.58-0.18c0.03-0.06,0.06-0.12,0.09-0.18c0.18-0.06,0.4-0.12,0.58-0.18c0-0.03,0-0.06,0-0.09
			c0.09-0.03,0.18-0.06,0.28-0.09c0.03-0.06,0.06-0.12,0.09-0.18c0.12-0.03,0.24-0.06,0.4-0.09c0-0.03,0-0.06,0-0.09
			c0.09-0.03,0.18-0.06,0.28-0.09c0.03-0.06,0.06-0.12,0.09-0.18c0.06,0,0.12,0,0.18,0c0.06-0.09,0.12-0.18,0.18-0.28
			c0.06,0,0.12,0,0.18,0c0.03-0.06,0.06-0.12,0.09-0.18c0.06,0,0.12,0,0.18,0c0.03-0.06,0.06-0.12,0.09-0.18
			c0.09-0.03,0.18-0.06,0.28-0.09c0.09-0.12,0.18-0.24,0.28-0.4c0.06,0,0.12,0,0.18,0c0.09-0.12,0.18-0.24,0.28-0.4
			c0.06,0,0.12,0,0.18,0c0.15-0.18,0.34-0.4,0.49-0.58c0.06,0,0.12,0,0.18,0c0.4-0.43,0.76-0.83,1.16-1.25
			c0.52-0.49,1.04-0.98,1.53-1.44c0-0.06,0-0.12,0-0.18c0.15-0.12,0.34-0.24,0.49-0.4c0-0.06,0-0.12,0-0.18
			c0.06-0.03,0.12-0.06,0.18-0.09c0-0.03,0-0.06,0-0.09c0.06-0.03,0.12-0.06,0.18-0.09c0-0.06,0-0.12,0-0.18
			c0.09-0.06,0.18-0.12,0.28-0.18c0-0.06,0-0.12,0-0.18c0.06-0.03,0.12-0.06,0.18-0.09c0-0.06,0-0.12,0-0.18
			c0.06-0.03,0.12-0.06,0.18-0.09c0-0.06,0-0.12,0-0.18c0.06-0.03,0.12-0.06,0.18-0.09c0.52-0.92,1.04-1.87,1.53-2.78
			c0-0.09,0-0.18,0-0.28c0.03,0,0.06,0,0.09,0c0-0.06,0-0.12,0-0.18c0.03,0,0.06,0,0.09,0c0.34-1.04,0.64-2.05,0.98-3.09
			c0-0.15,0-0.34,0-0.49c0.03,0,0.06,0,0.09,0c0-0.18,0-0.4,0-0.58c0.03,0,0.06,0,0.09,0c0-0.21,0-0.46,0-0.67c0.03,0,0.06,0,0.09,0
			c0-0.46,0-0.89,0-1.35c0.03,0,0.06,0,0.09,0C152.15,81.25,152.02,80.06,151.93,79.75z"/>
	</g>
</g>
<g>
	<g>
		<path class="st4" d="M230.75,65.16h6.04v45.68h-6.28V76.67l0.35,1.98l-11.27,25.8h-4.53l-11.27-25.22l0.35-2.67v34.17h-6.28V65.04
			h6.04l13.37,30.1L230.75,65.16z"/>
		<path class="st4" d="M248.18,109.56c-2.09-1.16-3.72-2.79-4.88-5c-1.16-2.21-1.74-4.88-1.74-7.9v-3.72c0-3.25,0.58-5.93,1.63-8.25
			c1.05-2.32,2.67-4.07,4.65-5.23c2.09-1.16,4.53-1.74,7.44-1.74c2.67,0,5,0.7,6.97,2.09c1.98,1.39,3.37,3.37,4.42,5.93
			s1.51,5.69,1.51,9.3v2.09h-21.97v-5.11h15.92c-0.23-2.67-0.93-4.77-2.09-6.16s-2.79-2.21-4.77-2.21c-2.44,0-4.3,0.81-5.58,2.32
			c-1.28,1.63-1.98,3.84-1.98,6.74v4.18c0,2.67,0.7,4.77,2.09,6.16c1.39,1.39,3.49,2.21,6.04,2.21c1.28,0,2.56-0.23,3.84-0.81
			c1.28-0.58,2.44-1.28,3.37-2.21l4.18,4.18c-1.63,1.51-3.37,2.79-5.46,3.6c-1.98,0.81-4.07,1.28-6.04,1.28
			C252.95,111.3,250.28,110.72,248.18,109.56z"/>
		<path class="st4" d="M272.24,78.18h6.39v32.54h-6.39V78.18z M292,91.08c0-2.32-0.58-4.07-1.74-5.35c-1.16-1.28-2.91-1.86-5-1.86
			c-2.09,0-3.72,0.58-4.88,1.63c-1.16,1.16-1.74,2.67-1.74,4.65l-0.7-6.28c1.05-1.98,2.32-3.49,3.95-4.53
			c1.63-1.05,3.37-1.63,5.35-1.63c3.49,0,6.28,1.16,8.25,3.49c1.98,2.32,2.91,5.58,2.91,9.76v19.76H292V91.08L292,91.08z"/>
		<path class="st4" d="M300.83,78.18h14.64v5.81h-14.64V78.18z M305.95,108.74c-1.16-1.39-1.86-3.6-1.86-6.39V68.76h6.39v33.7
			c0,0.81,0.12,1.39,0.46,1.86c0.35,0.46,0.81,0.58,1.39,0.58h3.14v6.04h-3.72C309.2,110.95,307.22,110.25,305.95,108.74z"/>
		<path class="st4" d="M320.82,108.74c-1.98-1.63-3.02-4.18-3.02-7.55c0-3.25,0.93-5.58,2.67-7.21c1.86-1.63,4.53-2.44,8.25-2.44
			h9.3l0.46,5.11h-9.65c-1.63,0-2.91,0.35-3.72,1.16c-0.81,0.7-1.28,1.86-1.28,3.37c0,1.63,0.58,2.91,1.63,3.72
			c1.05,0.81,2.79,1.16,5,1.16c2.44,0,4.3-0.23,5.46-0.81c1.16-0.58,1.74-1.39,1.74-2.44l0.7,4.53c-0.58,0.93-1.28,1.63-2.09,2.21
			s-1.74,0.93-2.91,1.28c-1.05,0.23-2.32,0.46-3.72,0.46C325.82,111.3,322.91,110.49,320.82,108.74z M337.91,90.15
			c0-2.09-0.58-3.84-1.74-5c-1.16-1.16-2.79-1.74-4.88-1.74c-1.28,0-2.56,0.23-3.84,0.58c-1.28,0.35-2.32,0.93-3.25,1.63l-4.65-3.25
			c1.28-1.51,2.91-2.67,4.88-3.49c1.98-0.81,4.3-1.28,6.74-1.28c2.67,0,5,0.46,6.97,1.39c1.98,0.93,3.37,2.32,4.42,4.18
			c1.05,1.86,1.51,3.95,1.51,6.51v20.92h-6.04L337.91,90.15L337.91,90.15z"/>
		<path class="st4" d="M355.22,102.35c0,0.81,0.23,1.39,0.58,1.86c0.35,0.46,0.81,0.58,1.51,0.58h3.02v6.04h-3.72
			c-2.44,0-4.3-0.81-5.58-2.21c-1.28-1.51-1.98-3.6-1.98-6.39V65.04h6.39L355.22,102.35L355.22,102.35z"/>
		<path class="st4" d="M369.87,109.21c-2.44-1.39-4.3-3.37-5.58-5.93s-1.98-5.58-1.98-8.95V81.78c0-3.37,0.7-6.39,1.98-8.95
			s3.14-4.53,5.58-6.04c2.44-1.39,5.23-2.09,8.37-2.09c2.56,0,5,0.58,7.21,1.74s4.07,2.67,5.46,4.77c1.39,2.09,2.44,4.42,3.02,7.09
			h-6.62c-0.35-1.39-1.05-2.67-1.98-3.84c-0.93-1.16-1.98-1.98-3.25-2.56s-2.56-0.93-3.84-0.93c-1.86,0-3.49,0.46-4.88,1.39
			c-1.39,0.93-2.44,2.21-3.25,3.72c-0.81,1.63-1.16,3.49-1.16,5.69v12.55c0,2.09,0.35,4.07,1.16,5.69s1.86,2.91,3.25,3.72
			c1.39,0.81,3.02,1.39,4.88,1.39c1.39,0,2.67-0.23,3.95-0.81c1.28-0.58,2.32-1.39,3.25-2.56c0.93-1.16,1.63-2.44,1.98-3.95h6.62
			c-0.58,2.67-1.51,5.11-3.02,7.09c-1.51,1.98-3.37,3.6-5.58,4.77c-2.21,1.16-4.65,1.74-7.21,1.74
			C375.1,111.3,372.31,110.6,369.87,109.21z"/>
		<path class="st4" d="M402.87,109.67c-1.98-1.16-3.49-2.67-4.65-4.88c-1.05-2.09-1.63-4.65-1.63-7.67v-5.35
			c0-2.91,0.58-5.46,1.63-7.55c1.05-2.09,2.56-3.72,4.65-4.77s4.42-1.63,7.21-1.63c2.79,0,5.23,0.58,7.21,1.63
			c1.98,1.05,3.49,2.67,4.65,4.77c1.16,2.09,1.63,4.65,1.63,7.55v5.46c0,3.02-0.58,5.46-1.63,7.55c-1.05,2.09-2.56,3.72-4.65,4.88
			c-1.98,1.16-4.42,1.63-7.21,1.63C407.29,111.3,404.85,110.72,402.87,109.67z M415.31,103.05c1.16-1.39,1.86-3.37,1.86-5.93v-5.46
			c0-2.56-0.58-4.53-1.86-5.81s-2.91-2.09-5.23-2.09c-2.32,0-3.95,0.7-5.23,2.09s-1.86,3.37-1.86,5.81v5.46
			c0,2.56,0.58,4.53,1.86,5.93s2.91,2.09,5.23,2.09C412.4,105.14,414.03,104.44,415.31,103.05z"/>
		<path class="st4" d="M427.86,78.18h6.39v32.54h-6.39V78.18z M447.62,91.08c0-2.32-0.58-4.07-1.74-5.35
			c-1.16-1.28-2.91-1.86-5-1.86c-2.09,0-3.72,0.58-4.88,1.63c-1.16,1.16-1.74,2.67-1.74,4.65l-0.7-6.28
			c1.05-1.98,2.32-3.49,3.95-4.53c1.63-1.05,3.37-1.63,5.35-1.63c3.49,0,6.28,1.16,8.25,3.49c1.98,2.32,2.91,5.58,2.91,9.76v19.76
			h-6.39V91.08L447.62,91.08z"/>
		<path class="st4" d="M458.89,78.18h6.39v32.54h-6.39V78.18z M478.65,91.08c0-2.32-0.58-4.07-1.74-5.35
			c-1.16-1.28-2.91-1.86-5-1.86s-3.72,0.58-4.88,1.63c-1.16,1.16-1.74,2.67-1.74,4.65l-0.7-6.28c1.05-1.98,2.32-3.49,3.95-4.53
			c1.63-1.05,3.37-1.63,5.35-1.63c3.49,0,6.28,1.16,8.25,3.49c1.98,2.32,2.91,5.58,2.91,9.76v19.76h-6.39V91.08L478.65,91.08z"/>
		<path class="st4" d="M495.62,109.56c-2.09-1.16-3.72-2.79-4.88-5c-1.16-2.21-1.74-4.88-1.74-7.9v-3.72c0-3.25,0.58-5.93,1.63-8.25
			c1.05-2.32,2.67-4.07,4.65-5.23c1.98-1.16,4.53-1.74,7.44-1.74c2.67,0,5,0.7,6.97,2.09c1.98,1.39,3.37,3.37,4.42,5.93
			c1.05,2.56,1.51,5.69,1.51,9.3v2.09h-21.97v-5.11h15.92c-0.23-2.67-0.93-4.77-2.09-6.16c-1.16-1.39-2.79-2.21-4.77-2.21
			c-2.44,0-4.3,0.81-5.58,2.32c-1.28,1.63-1.98,3.84-1.98,6.74v4.18c0,2.67,0.7,4.77,2.09,6.16s3.49,2.21,6.04,2.21
			c1.28,0,2.56-0.23,3.84-0.81c1.28-0.58,2.44-1.28,3.37-2.21l4.18,4.18c-1.63,1.51-3.37,2.79-5.46,3.6
			c-1.98,0.81-4.07,1.28-6.04,1.28C500.38,111.3,497.71,110.72,495.62,109.56z"/>
		<path class="st4" d="M525.14,109.67c-2.09-1.16-3.72-2.67-4.88-4.88c-1.16-2.09-1.63-4.65-1.63-7.67v-5.35
			c0-2.91,0.58-5.46,1.63-7.55c1.05-2.09,2.67-3.72,4.88-4.77s4.65-1.63,7.55-1.63c1.74,0,3.25,0.23,4.77,0.58
			c1.51,0.35,2.91,1.05,4.07,1.74c1.16,0.81,2.21,1.74,3.02,2.79l-4.65,4.18c-0.93-1.05-1.98-1.86-3.25-2.44
			c-1.28-0.58-2.56-0.81-3.84-0.81c-2.44,0-4.42,0.7-5.69,2.09s-2.09,3.37-2.09,5.81v5.35c0,2.56,0.7,4.53,1.98,5.93
			c1.39,1.39,3.25,2.09,5.81,2.09c1.39,0,2.67-0.35,3.84-0.93s2.32-1.51,3.25-2.56l4.65,4.42c-0.81,1.05-1.86,1.98-3.02,2.79
			c-1.16,0.81-2.56,1.39-4.07,1.74c-1.51,0.35-3.14,0.58-4.77,0.58C529.79,111.3,527.35,110.72,525.14,109.67z"/>
		<path class="st4" d="M544.32,78.18h14.76v5.81h-14.64v-5.81H544.32z M549.55,108.74c-1.16-1.39-1.86-3.6-1.86-6.39V68.76h6.39
			v33.7c0,0.81,0.12,1.39,0.46,1.86c0.35,0.46,0.81,0.58,1.39,0.58h3.14v6.04h-3.72C552.68,110.95,550.71,110.25,549.55,108.74z"/>
	</g>
</g>
<g>
	<g>
		<path class="st5" d="M196,127.92h2.32v22.9H196V127.92z M197.51,127.92h12.9v2.09h-12.9V127.92z M197.51,138.73h11.16v2.09h-11.16
			V138.73z"/>
		<path class="st5" d="M219.94,150.93h-2.32v-22.9h2.32V150.93z"/>
		<path class="st5" d="M229.36,127.92h2.32l13.37,20.69l-0.93-0.58v-19.99h2.32v22.9h-2.32l-13.6-20.8l1.28,0.93v19.87h-2.32
			L229.36,127.92L229.36,127.92z"/>
		<path class="st5" d="M255.27,127.92h2.32v22.9h-2.32V127.92z M257.37,148.84h5.23c2.09,0,3.72-0.46,4.77-1.51
			c1.05-1.05,1.63-2.44,1.63-4.53v-6.74c0-1.98-0.58-3.49-1.63-4.53s-2.67-1.51-4.77-1.51h-5.23v-2.09h5.11
			c1.98,0,3.6,0.35,4.88,0.93c1.28,0.58,2.32,1.51,2.91,2.79c0.58,1.28,0.93,2.79,0.93,4.53v6.51c0,1.86-0.35,3.37-0.93,4.53
			c-0.58,1.16-1.63,2.09-2.91,2.79c-1.28,0.58-2.91,0.93-4.88,0.93h-5.11V148.84L257.37,148.84z"/>
		<path class="st5" d="M288.4,127.92h16.15v2.09H288.4V127.92z M295.37,128.85h2.32v21.97h-2.32V128.85z"/>
		<path class="st5" d="M310.36,127.92h2.32v22.9h-2.32V127.92z M311.87,138.5h13.71v2.21h-13.71V138.5z M324.31,127.92h2.32v22.9
			h-2.32V127.92z"/>
		<path class="st5" d="M335.58,127.92h2.32v22.9h-2.32V127.92z M337.09,127.92h13.13v2.09h-13.13V127.92z M337.09,138.5h11.39v2.09
			h-11.39V138.5z M337.09,148.84h13.13v2.09h-13.13V148.84z"/>
		<path class="st5" d="M373.24,150.12c-1.16-0.7-2.09-1.63-2.79-2.91s-0.93-2.79-0.93-4.53v-6.51c0-1.74,0.35-3.25,0.93-4.53
			c0.58-1.28,1.51-2.21,2.79-2.91c1.28-0.7,2.67-1.05,4.42-1.05c1.74,0,3.14,0.35,4.42,1.05c1.28,0.7,2.09,1.63,2.79,2.91
			c0.7,1.28,0.93,2.79,0.93,4.53v6.51c0,1.74-0.35,3.25-0.93,4.53c-0.58,1.28-1.51,2.21-2.79,2.91c-1.28,0.7-2.67,1.05-4.42,1.05
			C375.91,151.16,374.4,150.81,373.24,150.12z M380.68,148.26c0.93-0.46,1.51-1.16,1.98-2.09c0.46-0.93,0.7-2.09,0.7-3.37v-6.74
			c0-1.28-0.23-2.44-0.7-3.37c-0.46-0.93-1.16-1.63-1.98-2.09c-0.93-0.46-1.86-0.7-3.14-0.7s-2.32,0.23-3.14,0.7
			c-0.93,0.46-1.51,1.16-1.98,2.09c-0.46,0.93-0.7,2.09-0.7,3.37v6.74c0,1.28,0.23,2.44,0.7,3.37c0.46,0.93,1.16,1.63,1.98,2.09
			c0.93,0.46,1.86,0.7,3.14,0.7S379.86,148.84,380.68,148.26z"/>
		<path class="st5" d="M390.9,127.92h16.15v2.09H390.9V127.92z M397.88,128.85h2.32v21.97h-2.32V128.85z"/>
		<path class="st5" d="M412.87,127.92h2.32v22.9h-2.32V127.92z M414.38,138.5h13.71v2.21h-13.71V138.5z M426.82,127.92h2.32v22.9
			h-2.32V127.92z"/>
		<path class="st5" d="M437.97,127.92h2.32v22.9h-2.32V127.92z M439.6,127.92h13.13v2.09H439.6V127.92z M439.6,138.5h11.39v2.09
			H439.6V138.5z M439.6,148.84h13.13v2.09H439.6V148.84z"/>
		<path class="st5" d="M460.52,127.92h2.32v23.01h-2.32V127.92z M461.92,139.08h7.79c0.81,0,1.63-0.23,2.21-0.58
			c0.7-0.35,1.16-0.93,1.51-1.63c0.35-0.7,0.58-1.51,0.58-2.32c0-0.93-0.23-1.74-0.58-2.32c-0.35-0.7-0.81-1.16-1.51-1.63
			c-0.7-0.46-1.39-0.58-2.32-0.58h-7.79v-2.09h7.67c1.28,0,2.44,0.23,3.49,0.81c1.05,0.58,1.74,1.28,2.32,2.32
			c0.58,1.05,0.81,2.21,0.81,3.49s-0.23,2.44-0.81,3.49s-1.39,1.74-2.32,2.32c-0.93,0.58-2.21,0.81-3.49,0.81h-7.67L461.92,139.08
			L461.92,139.08z M469.35,140.47l2.09-0.7l5.81,11.16h-2.67L469.35,140.47z"/>
		<path class="st5" d="M503.17,141.63v9.3h-2.32v-9.3l-7.44-13.6h2.44l6.16,11.51l6.16-11.51h2.44L503.17,141.63z"/>
		<path class="st5" d="M519.45,150.12c-1.16-0.7-2.09-1.63-2.79-2.91s-0.93-2.79-0.93-4.53v-6.51c0-1.74,0.35-3.25,0.93-4.53
			c0.58-1.28,1.51-2.21,2.79-2.91s2.67-1.05,4.42-1.05c1.74,0,3.14,0.35,4.42,1.05c1.16,0.7,2.09,1.63,2.79,2.91
			c0.7,1.28,0.93,2.79,0.93,4.53v6.51c0,1.74-0.35,3.25-0.93,4.53c-0.58,1.28-1.51,2.21-2.79,2.91c-1.28,0.7-2.67,1.05-4.42,1.05
			C522.12,151.16,520.72,150.81,519.45,150.12z M527,148.26c0.93-0.46,1.51-1.16,1.98-2.09s0.7-2.09,0.7-3.37v-6.74
			c0-1.28-0.23-2.44-0.7-3.37c-0.46-0.93-1.16-1.63-1.98-2.09c-0.93-0.46-1.86-0.7-3.14-0.7c-1.28,0-2.32,0.23-3.14,0.7
			c-0.93,0.46-1.51,1.16-1.98,2.09s-0.7,2.09-0.7,3.37v6.74c0,1.28,0.23,2.44,0.7,3.37c0.46,0.93,1.16,1.63,1.98,2.09
			c0.93,0.46,1.86,0.7,3.14,0.7C525.14,148.96,526.07,148.84,527,148.26z"/>
		<path class="st5" d="M543.62,150.23c-1.16-0.58-2.09-1.51-2.67-2.79c-0.58-1.28-0.93-2.79-0.93-4.65v-14.76h2.32v14.88
			c0,1.98,0.46,3.49,1.39,4.53c0.93,1.05,2.44,1.51,4.3,1.51c1.86,0,3.37-0.46,4.42-1.51c0.93-1.05,1.39-2.56,1.39-4.53v-14.88h2.32
			v14.76c0,1.86-0.35,3.49-0.93,4.65c-0.58,1.16-1.51,2.21-2.67,2.79c-1.16,0.58-2.67,0.93-4.53,0.93
			C546.18,151.16,544.78,150.81,543.62,150.23z"/>
	</g>
</g>
</svg>
